<svg width="31" height="47" fill="none" xmlns="http://www.w3.org/2000/svg"><path d="M15.698 15.348c-5.865 0-10.952 3.29-13.566 8.079 2.614 4.79 7.701 8.078 13.566 8.078 5.864 0 10.951-3.288 13.565-8.078-2.685-4.861-7.772-8.079-13.565-8.079z" fill="#493312"/><path d="M15.721 15.523c5.79 0 10.814 3.204 13.395 7.872A15.482 15.482 0 0031 16.01C31 7.58 24.163.683 15.652.683A15.293 15.293 0 00.303 16.01c0 2.717.698 5.225 1.884 7.385 2.72-4.738 7.744-7.872 13.534-7.872z" fill="#5C7F92"/><path d="M15.582 31.267a15.296 15.296 0 01-13.395-7.872A15.48 15.48 0 00.303 30.78c0 8.43 6.837 15.326 15.349 15.326A15.293 15.293 0 0031 30.78c0-2.717-.698-5.225-1.884-7.385-2.79 4.668-7.813 7.872-13.534 7.872z" fill="#E17000"/></svg>