<svg width="98" height="144" fill="none" xmlns="http://www.w3.org/2000/svg"><path d="M49.2054 46.4915c-18.5909 0-34.718 10.4254-43.00557 25.6101C14.4874 87.2864 30.6145 97.7117 49.2054 97.7117c18.591 0 34.7181-10.4253 43.0057-25.6101-8.5116-15.4113-24.6387-25.6101-43.0057-25.6101z" fill="#4C7189"/><path d="M49.2802 47.0429c18.3572 0 34.2815 10.1596 42.4648 24.9571 3.7599-6.8466 5.9717-15.0184 5.9717-23.411C97.7167 21.865 76.0419 0 49.059 0 22.0761 0 .4013 21.6442.4013 48.589c0 8.6135 2.21172 16.5644 5.97163 23.411C14.9986 56.9816 30.9229 47.0429 49.2802 47.0429z" fill="#493312"/><path d="M48.8378 96.9571C30.4806 96.9571 14.5563 86.7975 6.37293 72 2.61302 78.8466.40131 87.0184.40131 95.4111.4013 122.135 22.0761 144 49.059 144s48.6577-21.644 48.6577-48.5889c0-8.6135-2.2117-16.5645-5.9716-23.4111-8.8469 14.7975-24.7712 24.9571-42.9073 24.9571z" fill="#fff"/></svg>