<svg width="285" height="209" fill="none" xmlns="http://www.w3.org/2000/svg"><path d="M27.957 198.405c-.919 2.073-1.608 4.376-3.676 6.449-2.757 2.764-6.434 3.685-9.42 3.685-8.502 0-14.247-6.679-14.247-15.431 0-8.753 5.515-15.663 14.706-15.663 7.352 0 11.718 4.607 11.718 8.522 0 2.073-1.608 3.225-3.217 3.225-2.987 0-2.987-2.303-2.987-3.455 0-.921 0-2.073-.23-2.994-.689-2.534-2.986-3.685-5.284-3.685-7.353 0-7.813 9.213-7.813 13.819 0 6.219 1.609 13.82 8.962 13.82 1.838 0 2.987-.461 3.676-.691 4.366-1.843 5.744-5.758 6.663-8.062l1.15.461zM59.437 192.877c0 9.213-6.204 15.662-14.246 15.662-7.813 0-14.247-6.218-14.247-15.431 0-10.595 7.124-15.893 14.476-15.893 8.042-.23 14.017 6.219 14.017 15.662zm-21.37.461c0 8.522 1.15 13.589 7.123 13.589 7.123 0 7.353-5.988 7.353-14.05 0-3.685-.23-5.988-.23-6.91-.23-2.303-.919-7.37-6.893-7.37-6.433.23-7.352 6.219-7.352 14.741z" fill="#fff"/><path d="M65.18 164.086c2.528 0 3.218 0 5.515-.23v42.61h4.826v1.382H58.977v-1.382h5.285v-40.767h-5.285v-1.613h6.204z" fill="#fff"/><path d="M88.848 164.086v1.382h-5.515v40.998h5.285v1.382H72.074v-1.382H76.9v-42.61c2.298.23 2.987.23 5.515.23h6.434zM119.178 206.466v1.382h-4.596c-.689 0-1.378 0-2.297-.23-3.677-.461-4.366-2.764-4.596-4.146-1.149 1.612-3.446 4.837-9.88 4.837-1.149 0-3.906 0-5.745-2.073-.919-.921-2.297-2.994-2.297-6.91 0-2.303.46-4.376 2.068-5.988 1.838-1.843 3.446-2.073 8.961-3.225 3.676-.691 5.285-1.382 7.353-2.073v-2.303c0-4.146-.23-7.37-5.055-7.37-4.826 0-4.826 2.994-5.055 5.067 0 1.382-.23 3.224-2.987 3.224-1.38 0-2.988 0-2.988-2.533 0-.921.23-1.612.46-2.303 1.379-3.686 5.974-4.607 10.57-4.607 2.527 0 5.055.461 7.123 1.382 3.906 1.843 3.906 5.298 3.906 8.292v13.589c0 4.606.459 5.988 3.446 5.988h1.609zm-11.029-16.583l-5.515 1.612c-3.217.922-5.974 2.073-5.974 8.292 0 1.843 0 6.679 4.136 6.679 2.068 0 3.447-1.151 4.366-2.073 2.757-2.763 2.757-5.988 2.987-9.213v-5.297zM123.084 164.086c2.528 0 3.447 0 5.974-.23v18.196c1.149-1.843 3.217-4.607 8.961-4.607 4.136 0 7.583 1.613 9.651 5.759 1.608 3.454 2.068 6.909 2.068 9.904 0 10.134-5.055 15.892-11.948 15.892-1.149 0-2.528-.23-3.907-.691-2.987-1.152-3.906-2.994-4.595-4.376l.23 4.376h-6.204v-42.841h-4.596v-1.382h4.366zm8.272 17.045c-2.298 2.533-2.528 6.218-2.528 11.977 0 3.915.23 6.909 1.149 8.982.919 2.534 2.987 4.376 5.974 4.376 6.894 0 6.894-9.904 6.894-14.51 0-2.764-.23-6.449-1.609-9.443-.459-.922-1.608-3.455-5.055-3.455-1.838.23-3.676.921-4.825 2.073zM182.825 192.877c0 9.213-6.203 15.662-14.246 15.662-7.812 0-14.246-6.218-14.246-15.431 0-10.595 7.123-15.893 14.476-15.893 8.042-.23 14.016 6.219 14.016 15.662zm-21.598.461c0 8.522 1.149 13.589 7.123 13.589 7.123 0 7.352-5.988 7.352-14.05 0-3.685-.229-5.988-.229-6.91-.23-2.303-.919-7.37-6.894-7.37-6.433.23-7.352 6.219-7.352 14.741z" fill="#fff"/><path d="M193.855 206.466h5.285v1.382h-16.544v-1.382h5.285v-27.178h-5.285v-1.382h5.744c2.298 0 3.217 0 5.744-.23v7.14c1.609-3.225 3.677-7.601 8.502-7.601 4.136 0 5.515 3.225 5.515 5.758 0 2.303-.919 4.146-3.217 4.146-.919 0-2.987-.691-2.987-3.224 0-.461.23-2.304.23-2.764 0-1.843-1.149-1.843-1.609-1.843-.459 0-1.149.23-2.068 1.152-4.136 4.145-4.366 10.595-4.595 15.892v10.134zM238.661 206.466v1.382h-4.596c-.919 0-1.378 0-2.298-.23-3.676-.461-4.365-2.764-4.595-4.146-1.149 1.612-3.447 4.837-9.88 4.837-1.149 0-3.907 0-5.745-2.073-.919-.921-2.297-2.994-2.297-6.91 0-2.303.459-4.376 2.067-5.988 1.839-1.843 3.447-2.073 8.962-3.225 3.676-.691 5.285-1.382 7.353-2.073v-2.303c0-4.146-.23-7.37-5.056-7.37-4.825 0-4.825 2.994-5.055 5.067 0 1.382-.229 3.224-2.987 3.224-1.378 0-2.987 0-2.987-2.533 0-.921.23-1.612.46-2.303 1.378-3.686 5.974-4.607 10.569-4.607 2.528 0 5.056.461 7.123 1.382 3.907 1.843 3.907 5.298 3.907 8.292v13.589c0 4.606.459 5.988 3.446 5.988h1.609zm-11.029-16.583l-5.515 1.612c-3.217.922-5.974 2.073-5.974 8.292 0 1.843 0 6.679 4.136 6.679 2.068 0 3.446-1.151 4.365-2.073 2.758-2.763 2.758-5.988 2.988-9.213v-5.297zM247.852 169.845l-.23 8.291h6.663v1.843h-6.663l-.23 20.729c0 2.073 0 5.758 3.447 5.758 2.068 0 3.446-1.612 4.365-3.685l1.379.691c-1.379 2.764-2.757 5.067-8.042 5.067-7.123 0-7.123-4.376-7.123-7.37l.23-21.19h-4.826v-2.073h4.826l.23-8.292h5.974v.231zM284.156 199.326c-1.838 4.377-4.366 9.213-13.097 9.213-2.757 0-6.664-.23-10.11-3.915-3.447-3.685-4.136-8.292-4.136-11.747 0-1.612.23-2.994.459-4.376.69-2.764 2.068-5.758 4.136-7.601 2.298-2.303 5.745-3.685 9.651-3.685 4.136 0 7.123 1.612 9.421 3.685 3.446 3.455 3.676 7.14 3.906 10.135h-20.68c0 3.454 0 7.37 1.379 10.364 1.838 4.837 5.974 5.298 7.812 5.298 1.609 0 2.987-.461 4.136-.922 3.676-1.842 5.055-5.297 5.744-6.909l1.379.46zm-7.123-10.134c0-2.303-.23-4.837-1.149-6.91-1.378-2.764-3.676-3.455-5.285-3.455-5.974 0-6.433 6.68-6.663 10.365h13.097z" fill="#fff"/><path d="M143.5 49c-19.237 0-35.924 10.788-44.5 26.5 8.576 15.712 25.263 26.5 44.5 26.5s35.924-10.788 44.5-26.5C179.193 59.553 162.505 49 143.5 49z" fill="#4C7189"/><path d="M143.577 49.57a50.178 50.178 0 0143.941 25.825c3.89-7.085 6.179-15.54 6.179-24.225 0-27.652-22.428-50.277-50.349-50.277C115.428.893 93 23.289 93 51.17c0 8.913 2.289 17.14 6.18 24.225 8.925-15.54 25.402-25.824 44.397-25.824z" fill="#493312"/><path d="M143.12 101.219a50.178 50.178 0 01-43.94-25.824C95.288 82.479 93 90.935 93 99.619c0 27.653 22.428 50.278 50.348 50.278 27.921 0 50.349-22.397 50.349-50.278 0-8.912-2.289-17.14-6.179-24.224-9.154 15.312-25.632 25.824-44.398 25.824z" fill="#fff"/></svg>