<svg width="193" height="141" fill="none" xmlns="http://www.w3.org/2000/svg"><path d="M19.3848 133.867c-.6188 1.396-1.0829 2.946-2.4751 4.342-1.8564 1.861-4.3315 2.481-6.3425 2.481-5.7237 0-9.59107-4.497-9.59107-10.389 0-5.893 3.71267-10.545 9.90047-10.545 4.9502 0 7.8894 3.102 7.8894 5.738 0 1.395-1.0829 2.171-2.1657 2.171-2.011 0-2.011-1.551-2.011-2.326 0-.621 0-1.396-.1547-2.016-.4641-1.706-2.0111-2.481-3.558-2.481-4.95024 0-5.25963 6.202-5.25963 9.304 0 4.186 1.08286 9.304 6.03313 9.304 1.2375 0 2.011-.311 2.4751-.466 2.9392-1.24 3.8673-3.876 4.4861-5.427l.7735.31zM40.578 130.146c0 6.202-4.1768 10.544-9.5911 10.544-5.2596 0-9.5911-4.187-9.5911-10.389 0-7.133 4.7956-10.7 9.7458-10.7 5.4143-.155 9.4364 4.187 9.4364 10.545zm-14.3866.31c0 5.737.7734 9.149 4.7955 9.149 4.7955 0 4.9502-4.032 4.9502-9.459 0-2.481-.1547-4.032-.1547-4.652-.1547-1.551-.6188-4.962-4.6408-4.962-4.3315.155-4.9502 4.186-4.9502 9.924z" fill="#fff"/><path d="M44.4453 110.762c1.7017 0 2.1658 0 3.7127-.155v28.688h3.2486v.93h-11.138v-.93h3.558v-27.447h-3.558v-1.086h4.1767z" fill="#fff"/><path d="M60.3788 110.762v.931h-3.7127v27.602h3.558v.93h-11.138v-.93h3.2486v-28.688c1.5469.155 2.011.155 3.7127.155h4.3314zM80.7985 139.295v.93h-3.0939c-.4641 0-.9282 0-1.5469-.155-2.4751-.31-2.9392-1.861-3.0939-2.791-.7735 1.085-2.3204 3.256-6.6519 3.256-.7735 0-2.6298 0-3.8674-1.396-.6187-.62-1.5469-2.015-1.5469-4.651 0-1.551.3094-2.947 1.3923-4.032 1.2375-1.241 2.3204-1.396 6.033-2.171 2.4751-.465 3.558-.931 4.9503-1.396v-1.55c0-2.792-.1547-4.962-3.4033-4.962s-3.2486 2.015-3.4033 3.411c0 .93-.1547 2.171-2.011 2.171-.9282 0-2.0111 0-2.0111-1.706 0-.62.1547-1.085.3094-1.55.9282-2.482 4.0221-3.102 7.116-3.102 1.7016 0 3.4033.31 4.7955.931 2.6298 1.24 2.6298 3.566 2.6298 5.582v9.149c0 3.101.3094 4.032 2.3204 4.032h1.0829zm-7.4253-11.165l-3.7127 1.085c-2.1657.621-4.0221 1.396-4.0221 5.583 0 1.24 0 4.497 2.7845 4.497 1.3923 0 2.3205-.776 2.9392-1.396 1.8564-1.861 1.8564-4.032 2.0111-6.203v-3.566zM83.4284 110.762c1.7016 0 2.3204 0 4.022-.155v12.251c.7735-1.241 2.1657-3.102 6.0331-3.102 2.7845 0 5.1049 1.086 6.4972 3.877 1.0833 2.326 1.3923 4.652 1.3923 6.668 0 6.823-3.4034 10.699-8.0442 10.699-.7735 0-1.7016-.155-2.6298-.465-2.011-.775-2.6298-2.016-3.0939-2.946l.1547 2.946H83.583v-28.842h-3.0938v-.931h2.9392zm5.569 11.475c-1.547 1.706-1.7017 4.187-1.7017 8.064 0 2.636.1547 4.652.7735 6.047.6188 1.706 2.011 2.947 4.022 2.947 4.6409 0 4.6409-6.668 4.6409-9.77 0-1.86-.1547-4.341-1.0829-6.357-.3094-.621-1.0828-2.326-3.4033-2.326-1.2375.155-2.4751.62-3.2485 1.395zM123.649 130.146c0 6.202-4.177 10.544-9.591 10.544-5.26 0-9.591-4.187-9.591-10.389 0-7.133 4.795-10.7 9.746-10.7 5.414-.155 9.436 4.187 9.436 10.545zm-14.541.31c0 5.737.773 9.149 4.795 9.149 4.796 0 4.95-4.032 4.95-9.459 0-2.481-.154-4.032-.154-4.652-.155-1.551-.619-4.962-4.641-4.962-4.332.155-4.95 4.186-4.95 9.924z" fill="#fff"/><path d="M131.074 139.295h3.558v.93h-11.138v-.93h3.558v-18.298h-3.558v-.931h3.868c1.547 0 2.165 0 3.867-.155v4.807c1.083-2.171 2.475-5.117 5.724-5.117 2.784 0 3.712 2.171 3.712 3.877 0 1.551-.618 2.791-2.165 2.791-.619 0-2.011-.465-2.011-2.171 0-.31.154-1.551.154-1.861 0-1.24-.773-1.24-1.083-1.24-.309 0-.773.155-1.392.775-2.784 2.791-2.939 7.133-3.094 10.7v6.823zM161.24 139.295v.93h-3.094c-.619 0-.928 0-1.547-.155-2.475-.31-2.939-1.861-3.094-2.791-.774 1.085-2.32 3.256-6.652 3.256-.773 0-2.63 0-3.867-1.396-.619-.62-1.547-2.015-1.547-4.651 0-1.551.309-2.947 1.392-4.032 1.238-1.241 2.32-1.396 6.033-2.171 2.475-.465 3.558-.931 4.95-1.396v-1.55c0-2.792-.154-4.962-3.403-4.962s-3.249 2.015-3.403 3.411c0 .93-.155 2.171-2.011 2.171-.928 0-2.011 0-2.011-1.706 0-.62.154-1.085.309-1.55.928-2.482 4.022-3.102 7.116-3.102 1.702 0 3.403.31 4.796.931 2.629 1.24 2.629 3.566 2.629 5.582v9.149c0 3.101.31 4.032 2.321 4.032h1.083zm-7.426-11.165l-3.712 1.085c-2.166.621-4.022 1.396-4.022 5.583 0 1.24 0 4.497 2.784 4.497 1.392 0 2.321-.776 2.939-1.396 1.857-1.861 1.857-4.032 2.011-6.203v-3.566zM167.427 114.639l-.154 5.582h4.486v1.241h-4.486l-.155 13.956c0 1.395 0 3.877 2.32 3.877 1.393 0 2.321-1.086 2.94-2.482l.928.466c-.928 1.86-1.856 3.411-5.414 3.411-4.796 0-4.796-2.946-4.796-4.962l.155-14.266h-3.249v-1.396h3.249l.154-5.582h4.022v.155zM191.869 134.488c-1.237 2.946-2.939 6.202-8.817 6.202-1.857 0-4.487-.155-6.807-2.636-2.32-2.481-2.784-5.582-2.784-7.908 0-1.086.154-2.016.309-2.947.464-1.86 1.392-3.876 2.784-5.117 1.547-1.55 3.868-2.481 6.498-2.481 2.784 0 4.795 1.086 6.342 2.481 2.32 2.326 2.475 4.807 2.63 6.823h-13.923c0 2.326 0 4.962.929 6.978 1.237 3.256 4.022 3.567 5.259 3.567 1.083 0 2.011-.311 2.785-.621 2.475-1.24 3.403-3.566 3.867-4.652l.928.311zm-4.795-6.823c0-1.551-.155-3.257-.774-4.652-.928-1.861-2.475-2.326-3.558-2.326-4.022 0-4.331 4.497-4.486 6.978h8.818z" fill="#fff"/><path d="M96.5 33.2808c-12.9512 0-24.186 7.2627-29.9594 17.8409C72.314 61.7 83.5488 68.9627 96.5 68.9627c12.951 0 24.186-7.2627 29.959-17.841-5.929-10.7361-17.164-17.8409-29.959-17.8409z" fill="#E0A871"/><path d="M96.5521 33.665c12.7879 0 23.8819 7.0775 29.5829 17.3861 2.619-4.7697 4.16-10.4624 4.16-16.3091 0-18.6169-15.1-33.84893-33.897-33.84893-18.7974 0-33.8968 15.07813-33.8968 33.84893 0 6.0005 1.5407 11.5394 4.16 16.3091 6.009-10.4624 17.1025-17.3861 29.8909-17.3861z" fill="#fff"/><path d="M96.2439 68.4373c-12.7883 0-23.8818-7.0775-29.5827-17.386-2.6193 4.7696-4.16 10.4624-4.16 16.309 0 18.6169 15.0995 33.8487 33.8968 33.8487 18.797 0 33.897-15.0779 33.897-33.8487 0-6.0005-1.541-11.5394-4.16-16.309-6.163 10.3085-17.257 17.386-29.8911 17.386z" fill="#E17000"/></svg>