<svg width="210" height="135" fill="none" xmlns="http://www.w3.org/2000/svg"><path d="M210 133.474H0V135h210v-1.526z" fill="#85848B"/><path d="M166.375 106.531c0 1.174-6.881 4.596-15.054 4.596-8.174 0-14.542-3.422-14.542-4.596 0-1.173 6.624-.795 14.806-.795 8.181 0 14.79-.38 14.79.795z" fill="#504F60"/><path opacity=".2" d="M166.375 106.531c0 1.174-6.881 4.596-15.054 4.596-8.174 0-14.542-3.422-14.542-4.596" fill="#000"/><path d="M84.0636 84.994c1.3265.1691 2.7031.2765 3.9736-.1333.2001-.0617.4202-.199.4002-.3979a.48073.48073 0 00-.0901-.199 12.26676 12.26676 0 01-1.2005-2.2739.19832.19832 0 00-.074-.1034.18885.18885 0 00-.128 0c-.5863.1532-1.0925.5292-1.6747.6903-.2969.081-.6067.104-.9124.0676-.2641-.0298-.6242-.2466-.8643-.2188.136.8694.4682 1.6811.5702 2.5684zM109.152 82.7917c.874-.5968 1.78-1.2235 2.297-2.1446.036-.0551.058-.119.062-.185-.009-.065-.035-.1267-.074-.1791-.492-.7772-1.125-1.4566-1.867-2.0033-.387.2719-.737.5929-1.041.9549-.22.2308-.828.5968-.834.949 0 .1989.232.4297.34.5968.146.2148.284.4337.416.6565.076.1094.771 1.311.701 1.3548z" fill="#E17000"/><path d="M89.2637 87.6578a.8817.8817 0 01-.1601.5769.78735.78735 0 01-.3361.199c-1.8547.6605-4.0016-.1632-5.8523.4874-.3802.1333-.7403.3262-1.1225.4536-.4556.1362-.9256.219-1.4005.2467-.6543.0616-1.3126.1014-1.9688.1193a4.7591 4.7591 0 01-1.4846-.1293 1.78586 1.78586 0 01-.6653-.3281 1.77495 1.77495 0 01-.4732-.5691.8572.8572 0 01-.056-.6386.6881.6881 0 01.1221-.199c.1254-.1399.2727-.2588.4361-.3521l.6823-.4377a4.59275 4.59275 0 011.0344-.5451c.2701-.0875.5562-.1253.8303-.1989.9584-.2785 1.6907-1.0345 2.371-1.7607l.9284-.9847a.93284.93284 0 01.3221-.2567.8972.8972 0 01.4001-.0378c.9018.0641 1.7726.3543 2.5311.8436.1938.1445.4032.2673.6242.366.5442.2109 1.2425.0517 1.7447-.2148.2381-.1274.1861-.199.2861-.4258.1001-.2268.3442-.372.5562-.1651.064.0715.1094.1576.1321.2507.2001.6565.124 1.3627.124 2.0511a.8986.8986 0 00.0401.3183c.051.1037.112.2023.182.2944.0143.0244.027.0496.0381.0756.1223.3048.1683.6345.134.9609z" fill="#514E7F"/><path d="M89.2637 87.6578a.8817.8817 0 01-.1601.5769.78735.78735 0 01-.3361.199c-1.8547.6604-4.0016-.1632-5.8523.4874-.3802.1333-.7403.3262-1.1225.4535-.4556.1362-.9256.219-1.4005.2467-.6543.0617-1.3126.1015-1.9688.1194a4.75937 4.75937 0 01-1.4846-.1293 1.78586 1.78586 0 01-.6653-.3281 1.77495 1.77495 0 01-.4732-.5691.8572.8572 0 01-.056-.6386c.029-.0728.0703-.14.1221-.199.108.2248.186.5232.2541.6307.0919.1592.2168.297.3666.4044.1497.1074.3208.1818.5017.2182.2708.0166.5423-.0178.8003-.1014 1.6807-.4138 3.4674-.4198 5.0821-1.0464.5542-.2169 1.0824-.5054 1.6646-.6367.5823-.1313 1.2005-.0955 1.8007-.1452.9484-.0756 1.8668-.3601 2.8012-.5093.1206.3073.1639.6392.126.9669z" fill="#464353"/><path d="M113.399 82.6703c-.088.7003-.534 1.3031-1.024 1.8144-.49.5113-1.044.9708-1.435 1.5597-.48.7301-.696 1.6353-1.32 2.252-.24.2243-.509.415-.8.567-.327.1915-.672.3495-1.031.4715-.932.2964-1.937.2288-2.911.1571-.316-.003-.63-.063-.924-.177-.135-.0678-.263-.1463-.385-.2348-.244-.1495-.449-.3539-.6-.5968-.074-.132-.094-.287-.058-.4337.056-.1615.151-.3066.278-.4217.22-.2268.455-.4375.705-.6307.342-.2198.651-.4878.916-.7957.163-.2434.282-.5125.354-.7958.142-.4964.228-1.0068.258-1.5219-.001-.3423.035-.6838.106-1.0186.148-.5252.54-.9947.496-1.5378a.39452.39452 0 01.02-.2328.32996.32996 0 01.184-.1134c.306-.1212.629-.1956.957-.2208.164-.0113.33.0139.483.0738.154.0598.292.1529.405.2723.136.1632.226.3979.426.4616.1.0269.204.031.305.0119.492-.0497 1.012-.1114 1.4-.4277.179-.16.324-.3552.424-.5733.099-.2181.153-.4543.156-.6939 0-.1811-.082-.3701.2-.3979.212-.0279.381.1989.489.3382.39.5192.79 1.0623.936 1.6949a.5067.5067 0 01.178-.0338c.125-.0011.248.0278.359.0843.111.0565.207.1388.279.24.16.2566.221.5615.174.8594z" fill="#514E7F"/><path d="M113.399 82.6703c-.088.7003-.534 1.3031-1.024 1.8144-.49.5112-1.044.9708-1.435 1.5597-.48.7301-.696 1.6353-1.32 2.252-.24.2243-.509.415-.8.567-.327.1915-.672.3495-1.031.4715-.932.2964-1.937.2288-2.911.1571-.316-.003-.63-.063-.924-.177-.135-.0678-.263-.1463-.385-.2348-.244-.1495-.449-.3539-.6-.5968.188-.0897.392-.1385.6-.1432.433.0238.749.4297 1.163.555.59.1771 1.178-.2367 1.777-.378.39-.0915.8-.0676 1.186-.1989.322-.1237.619-.3028.878-.5292.356-.2526.672-.5555.939-.8992.221-.3437.406-.7099.55-1.0922.316-.7328.688-1.4405 1.112-2.1168.063-.1071.139-.2059.227-.2944.094-.0855.2-.1452.306-.2208.4-.3004.566-.7958.706-1.2812.038-.1476.091-.2909.158-.4277.125-.0011.248.0278.359.0842.111.0565.207.1388.279.24.172.2627.24.5797.19.8893z" fill="#464353"/><path d="M71.4446 20.6442c.498.371.9078.8465 1.2005 1.3926.2801.5451 1.8947 4.7746 1.8007 5.3893.5262-.5272 2.601-.6127 3.1332-1.1399.2221-.2208 1.4206-1.323 1.6007-1.5796.1801-.2567 1.5166-.7958 1.6626-1.0663.5463-.9729-3.8735-4.6593-3.3073-5.6202a.24923.24923 0 00.046-.1512.24617.24617 0 00-.074-.1173c-.3621-.3681-.8423-.5969-1.2785-.8694-.4362-.2726-.8563-.6525-.9744-1.1539-.4159.1904-.7978.4471-1.1304.76-.811.691-1.608 1.3959-2.391 2.1147-.3061.2825-.8984.6585-1.0404 1.0624-.1681.4337.4602.742.7523.9788z" fill="#A1616A"/><path d="M78.5994 19.0786c-.6781.453-1.3118.9686-1.8927 1.5398-.5482.5391-1.0684 1.1638-1.2005 1.9178-.056.2964-.048.5968-.094.8972-.2001 1.3031-1.3326 2.258-1.8328 3.4775a6.00567 6.00567 0 00-.3181 1.1638 13.6883 13.6883 0 00-.2301 2.2839c-.012.742.7203 1.2533.9884 1.9456.2681.6923.3401 1.4045.4762 2.1148.2561 1.3408.7263 2.634 1.2005 3.9191.9864 2.7096 4.1837 10.1998 5.1701 12.9113 3.0232-.7539 11.0704-2.4867 13.7475-4.0763.8923-.5292-6.1925-6.4994-5.2381-6.9112a.358.358 0 00.1514-.0612.35516.35516 0 00.108-.1219.35284.35284 0 00.0087-.3163c-.9544-4.1499-3.9396-7.5597-5.2941-11.6003-.4702-1.4025-1.3146-2.6001-1.9548-3.933-.5803-1.2076-.8904-2.5425-1.5847-3.6904a2.3297 2.3297 0 00-.5062-.6267 2.9894 2.9894 0 00-.5582-.3362c-.3962-.191-.7643-.3044-1.1465-.4973z" fill="#514E7F"/><path d="M71.6046 20.1727c2.6134 0 4.7319-2.1065 4.7319-4.705s-2.1185-4.7049-4.7319-4.7049c-2.6133 0-4.7318 2.1064-4.7318 4.7049 0 2.5985 2.1185 4.705 4.7318 4.705z" fill="#A1616A"/><path d="M76.4186 17.678c.2358-.2163.532-.3564.8496-.4019.3175-.0454.6415.0059.9291.1472.3201.1651.6002.4994.5282.8495l2.3469.0358c.3736-.0102.747.0239 1.1125.1015.3678.0796.6961.2843.9283.5789.0281.0378.0601.0835.1081.0895a.17227.17227 0 00.108-.0358 2.0471 2.0471 0 011.1685-.1989c1.2685.0815 2.441.7122 3.4354 1.5.1793.1226.3185.2948.4001.4953.0821.2646-.016.5969.2001.7859 0 2.1883.7563 4.2335 1.2605 6.3661.0901.38.4562.7162.7103 1.0146.314.3308.5702.7114.7583 1.126.4282 1.1061-.1621 2.4072.2541 3.5173.1761.4695.5162.8555.8003 1.2633.3746.4709.6113 1.0354.6843 1.6313.018.2666-.016.5352 0 .7958.0269.3584.094.7128.2001 1.0564.1707.6419.3495 1.2831.5362 1.9237.3041 1.0345.7003 2.1506 1.6327 2.7017-2.2509.38-4.6239.752-6.7688-.0259a3.52025 3.52025 0 01-.8443-.4198c-.7743-.549-1.1485-1.488-1.4826-2.3753-.3721-.9947-.7503-2.0073-.8263-3.0657a3.50027 3.50027 0 00-.1421-.9947c-.2181-.577-.8003-.9251-1.3285-1.2454-.5965-.325-1.1369-.7427-1.6006-1.2374a2.4693 2.4693 0 01-.5179-.8622 2.46022 2.46022 0 01-.1304-.9959c.04-.3283.1701-.6446.1821-.9749.012-.3302-.1361-.7082-.4542-.7957-1.6387-.4934-2.421-2.4231-2.7851-4.0863a13.04228 13.04228 0 01-.2101-2.6061l-.022-1.697c-.2261-.2046-.408-.4527-.5346-.7294a2.22945 2.22945 0 01-.2017-.88 1.90501 1.90501 0 00-.01-.5332 1.46985 1.46985 0 00-.3762-.567 5.06212 5.06212 0 01-.8983-1.2513zM71.3786 23.0574c-.0541.5252.066 1.0643-.0521 1.5796-.046.1989-.126.3978-.184.5829-.1774.7416-.1007 1.5209.218 2.2142a12.3198 12.3198 0 001.1385 1.9596c.1485.2106.2708.4384.3641.6783.0757.252.1227.5116.1401.7739.1159 1.0535.3017 2.0983.5562 3.1274.2241.8913 2.7691 8.5107 3.3614 9.217.1074.1563.2704.2665.4562.3083a.8342.8342 0 00.3881-.0795l1.2005-.4576a.78623.78623 0 00.2781-.1512.71015.71015 0 00.1721-.4695c.086-.9708-2.465-8.644-2.7891-9.5612-.9804-2.7692-2.285-5.439-2.9232-8.3058-.1781-.7957-.2721-2.0212-.8584-2.6559-.2421-.2626-.16-.1512-.4501-.0139a3.30704 3.30704 0 00-.4242.2208c-.1698.1174-.3111.271-.4136.4497a1.37365 1.37365 0 00-.1786.5829z" fill="#464353"/><path d="M75.022 28.3114c.3221 1.693.6543 3.382.9844 5.075l4.6979-1.2235c.038-.4894-.2241-.943-.4002-1.3926-.4281-1.0683-.4381-2.258-.7843-3.3561-.2621-.8356-.7183-1.6035-.9644-2.445-.142-.4894-.2141-.9947-.3541-1.4901a10.78924 10.78924 0 00-.5522-1.4224 8.89015 8.89015 0 00-1.0244-1.888c-.6003.2228-1.2405.4814-1.5827 1.0206a2.19471 2.19471 0 00-.2921.9947c-.082 1.0484.3001 2.1028.1741 3.1453a9.19816 9.19816 0 00.098 2.9821z" fill="#E17000"/><path d="M80.7823 50.8317c.2641.9947-.118 2.0411-.4301 3.0259a23.33069 23.33069 0 00-.9564 4.5558c-.0204.3935-.1.7818-.2361 1.1518-.1481.3323-.4002.6128-.5722.9291-.4722.8316-.4602 1.8462-.3582 2.7971.068.6267.1701 1.2514.2961 1.8681.1541.754.3442 1.5418.1221 2.2779.3721-.0816.6242.3979.6002.7739-.024.376-.146.7957.036 1.12.4602.1671.4642.7958.4502 1.2832.0076.8451.1151 1.6864.3201 2.5066.6963 3.329 1.4353 6.6487 2.2169 9.9591 1.6907.5212 3.6655 1.0643 5.2781.3422.3002-.1333.6003-.3462.6683-.6685a1.15982 1.15982 0 00-.064-.5133l-.7643-2.7653c-.1861-.6684-.3722-1.3587-.2741-2.0451.074-.5113.2981-1.0623.046-1.5139-.086-.1552-.2221-.2766-.3221-.4238-.4002-.5829-.1901-1.3627-.1581-2.069.0125-.1585.0017-.318-.032-.4734a2.35598 2.35598 0 00-.2281-.5193c-.6317-1.2193-.935-2.5805-.8804-3.951a.97182.97182 0 00-.07-.5152 1.66615 1.66615 0 01-.13-.2109.57373.57373 0 01.042-.38 3.493 3.493 0 01-.6163-.5968.86005.86005 0 00.2745-.2713.85553.85553 0 00.1275-.3634.85316.85316 0 00-.0452-.3821.85762.85762 0 00-.2087-.3241.45052.45052 0 00.2179-.1112.44704.44704 0 00.1271-.2083.44515.44515 0 00-.0014-.2436.44775.44775 0 00-.1295-.2068c-.0981-.0676-.2281-.0975-.2981-.1989-.1081-.1473-.0201-.3522.068-.5093l.4662-.8376c.3481-.6227.4261-1.3926.8003-1.9894.5362-.8694.8863-1.8382 1.2325-2.7971l1.3465-3.6944.9064.7819c.3019.2293.5549.516.7443.8435.1289.3236.2104.664.2421 1.0106.3321 2.0053 1.6006 3.7441 2.0708 5.7196.104.4397.1741.9012.4282 1.2772.0909.1154.1725.2378.2441.3661.0662.1955.1006.4004.102.6067.042.4041.1709.7945.378 1.1446.2072.3501.4877.6518.8225.8846.4462.3044 1.0004.5133 1.2425.9947.0484.1491.1156.2915.2001.4238.2161.2586.6822.2885.7743.6127.052.1811-.044.3979.058.5571a.5304.5304 0 00.2221.1651l1.3025.6466c1.4566.7241 2.2006 2.3873 3.2756 3.5988.371.3946.699.8267.98 1.2892.464.8256.678 1.8621 1.463 2.3873.211.1087.402.2504.568.4197.246.3223.156.7739.178 1.1798.022.4058.334.8892.722.7659a2.81571 2.81571 0 000 1.502c1.704-.087 3.329-.7415 4.614-1.8581.38-.3303.746-.752.75-1.2534.006-.0865-.013-.1729-.056-.2486a.71246.71246 0 00-.294-.2209c-1.218-.6565-1.584-2.1784-2.201-3.4138-.538-1.0902-1.334-2.0292-2-3.0418-1.449-2.1784-2.437-4.8144-4.628-6.2528-.482-.3163-1.043-.5968-1.285-1.12-.134-.2925-.15-.6267-.256-.9291-.106-.3024-.36-.5968-.6841-.5968.18-.4377.144-.9708.156-1.4443a1.81344 1.81344 0 00-.072-.6227 3.02151 3.02151 0 00-.3221-.6167c-.5716-.9623-.8574-2.066-.8243-3.1831.016-.5749.118-1.1678-.0561-1.7169-.088-.2765-.2421-.5292-.3481-.7957a4.9462 4.9462 0 01-.2501-1.4961l-.1201-1.9118a9.35017 9.35017 0 00-.2481-1.89c-.4001-1.4841-.8003-7.701-2.1708-8.4013-1.3706-.7003-3.7255 4.0843-5.2681 4.1778a6.89357 6.89357 0 00-2.0008.3839c-1.0265.382-1.8868 1.0942-2.7251 1.7905l-2.8372 2.3694c-.6002.4914-1.0964.9609-1.7587 1.3071zM67.1649 10.2435c.6242-.84751 1.6966-1.29712 2.7531-1.33492 1.0564-.0378 2.0968.29245 3.0432.75996.2793.15795.5779.27963.8883.36206.5002.1015 1.0565-.0338 1.5086.199.6003.3163.7163 1.122.6643 1.7904-.052.6685-.1781 1.4105.1801 1.9895a4.593 4.593 0 01.3461.5192c.1541.3442.064.742-.028 1.1061-.2341-.1989-.3661-.4993-.5742-.7301-.2081-.2308-.5703-.386-.8284-.2129s-.2541.4874-.2681.7699c-.014.2825-.086.6207-.3541.7122a.57738.57738 0 01-.336-.0247.5737.5737 0 01-.2642-.208c-.4582-.5571-.2742-1.4463-.7283-2.0073-.2581-.3183-.6883-.4735-.9264-.8077-.1881-.2626-.2361-.5969-.4002-.8794-.164-.2825-.5462-.4894-.8003-.2944a1.0789 1.0789 0 00-.2141.2845c-.1584.2257-.3888.3916-.6538.471a1.23758 1.23758 0 01-.8068-.0333 2.45034 2.45034 0 00-.6322-.2726.78644.78644 0 00-.4182.0965.77975.77975 0 00-.3041.3014 1.54686 1.54686 0 00-.2001.8316c0 .3978.0721.8216-.156 1.1399a1.18534 1.18534 0 01-.3202.3024c-.3341.2129-.8003.3561-1.1084.1134a.82684.82684 0 01-.2256-.3537.82331.82331 0 01-.0225-.4182c.06-.2769.1389-.5494.2361-.8157.1761-.6167-.054-1.311.138-1.8919a6.0268 6.0268 0 01.8124-1.4642z" fill="#464353"/><path d="M69.6999 24.2789a.72005.72005 0 00.044.4317.68947.68947 0 00.2361.2248c.6728.4168 1.4381.6633 2.2289.7182a.68128.68128 0 01.3081.0795c.1881.1234.2001.3979.1301.6168a1.59724 1.59724 0 00-.1421.6565c.058.4158.5542.5968.9724.6585.5862.0736 1.2285.0358 1.6927-.3283.3144-.2851.5541-.6423.6983-1.0405 1.1484-2.624 1.5506-5.5246 2.713-8.1407.0881-.1708.147-.355.1741-.5451a.53388.53388 0 00-.0393-.2799.53735.53735 0 00-.1768-.2214c-.2161-.1333-.5522-.0577-.6983-.2666-.072-.1054-.064-.2487-.128-.3601-.1341-.2367-.4862-.1989-.7263-.3362-.1881-.0994-.3181-.3044-.5282-.3441a.66812.66812 0 00-.301.0531.66335.66335 0 00-.2452.1816c-.6823.6326-1.0404 1.5299-1.4206 2.3774a27.82544 27.82544 0 01-2.0328 3.748c.09-.1392-.4322-1.1936-.6363-1.2394-.3581-.0716-.8163.5531-1.0104.7858-.609.7342-.9949 1.6259-1.1124 2.5704z" fill="#E17000"/><path opacity=".1" d="M76.9688 16.3312a.9641.9641 0 00-.4136.1009.95816.95816 0 00-.3287.2691c-.2141.2765-.2561.6426-.3101.9947-.1821 1.1156-.5825 2.1849-1.1785 3.1473M77.9892 17.1249a1.1471 1.1471 0 00-.5623.1616 1.13985 1.13985 0 00-.4081.4174 3.23926 3.23926 0 00-.2441.9827c-.1715.7499-.5024 1.4547-.9704 2.067" fill="#000"/><path d="M125.54 56.0181v-2.4709c0-1.8189-.727-3.5631-2.021-4.8491s-3.048-2.0084-4.878-2.0084H20.5042c-1.8293 0-3.5837.7224-4.8774 2.0084-1.2938 1.286-2.0208 3.0302-2.0213 4.8491v4.5558L125.54 56.0181z" fill="#33323D"/><path d="M47.8051 43.7931s-.2801 17.2801 2.8012 22.9658c3.0812 5.6858 4.4017 30.4202 4.4017 30.4202s32.3009 3.3219 54.81-3.9788c22.509-7.3012 70.404-10.2873 70.404-10.2873l-8.071-54.0903s-39.874-2.5425-62.557 8.2143c-22.6832 10.7568-61.7889 6.7561-61.7889 6.7561z" fill="#8DD070"/><path opacity=".1" d="M47.8051 43.7931s-.2801 17.2801 2.8012 22.9658c3.0812 5.6858 4.4017 30.4202 4.4017 30.4202s32.3009 3.3219 54.81-3.9788c22.509-7.3012 70.404-10.2873 70.404-10.2873l-8.071-54.0903s-39.874-2.5425-62.557 8.2143c-22.6832 10.7568-61.7889 6.7561-61.7889 6.7561z" fill="#000"/><path d="M54.954 50.1055s-1.0104 14.2582 1.5246 18.8139c2.535 4.5558 2.6531 24.8936 2.6531 24.8936s29.0696 1.3409 49.7483-5.6579c20.678-6.9987 64.131-11.5386 64.131-11.5386l-4.938-44.2347s-35.954-.3681-56.939 9.4835c-20.9839 9.8516-56.18 8.2402-56.18 8.2402z" fill="#8DD070"/><path opacity=".1" d="M110.815 80.0561c4.136-.5122 6.594-8.0779 5.489-16.8985-1.105-8.8205-5.354-15.5557-9.49-15.0434-4.136.5122-6.594 8.0779-5.489 16.8985 1.105 8.8205 5.354 15.5557 9.49 15.0434z" fill="#000"/><path opacity=".2" d="M150.29 2.47284S111.553 12.221 93.2853 29.3797C75.018 46.5385 36.5626 54.6633 36.5626 54.6633s5.0661 16.5301 9.7519 21.0023c4.6859 4.4722 13.5735 27.6134 13.5735 27.6134s31.7667-6.6967 50.934-20.5191c19.168-13.8225 63.84-31.2797 63.84-31.2797L150.29 2.47284z" fill="#000"/><path d="M35.9804 52.1884s5.064 16.5321 9.7459 21.0043c4.6818 4.4722 13.5734 27.6113 13.5734 27.6113s31.7707-6.6945 50.9403-20.517c19.17-13.8225 63.838-31.2737 63.838-31.2737L149.706 0S110.97 9.74815 92.7031 26.9069C74.4358 44.0656 35.9804 52.1884 35.9804 52.1884z" fill="#8DD070"/><path opacity=".1" d="M35.9804 52.1884s5.064 16.5321 9.7459 21.0043c4.6818 4.4722 13.5734 27.6113 13.5734 27.6113s31.7707-6.6945 50.9403-20.517c19.17-13.8225 63.838-31.2737 63.838-31.2737L149.706 0S110.97 9.74815 92.7031 26.9069C74.4358 44.0656 35.9804 52.1884 35.9804 52.1884z" fill="#000"/><path d="M44.7259 56.0161s3.4394 13.8802 7.2589 17.4412c3.8195 3.5611 10.2041 22.8783 10.2041 22.8783S90.2681 88.74 107.789 75.769c17.521-12.971 57.481-30.5316 57.481-30.5316L146.921 4.62939S112.589 15.2469 95.6563 31.027C78.7235 46.8071 44.7259 56.0161 44.7259 56.0161z" fill="#8DD070"/><path opacity=".1" d="M107.141 67.4768c3.779-1.7495 3.783-9.7.009-17.7578-3.774-8.0579-9.8962-13.1718-13.6747-11.4223-3.7785 1.7496-3.7823 9.7-.0085 17.7579 3.7737 8.0578 9.8962 13.1717 13.6742 11.4222z" fill="#000"/><path opacity=".1" d="M128.189 58.4432v68.6348c0 .78-.154 1.552-.454 2.272-.3.72-.74 1.374-1.294 1.925-.555.551-1.213.988-1.937 1.286-.725.299-1.501.452-2.285.452H19.5778c-1.5825-.001-3.1001-.626-4.219-1.739-1.1188-1.113-1.7473-2.622-1.7473-4.196V51.524c2.9411 1.0862 2.9411 1.0862 5.9663.9947H122.219c1.581 0 3.098.6238 4.217 1.7345 1.12 1.1107 1.75 2.6176 1.753 4.19z" fill="#000"/><path d="M128.189 59.3165v68.6345c0 1.575-.629 3.084-1.749 4.197s-2.638 1.738-4.221 1.738H19.5778c-1.5825-.001-3.1001-.626-4.219-1.739-1.1188-1.113-1.7473-2.622-1.7473-4.196V52.3953c2.9411 1.0843 2.9411 1.0843 5.9663.9947H122.219c1.582 0 3.099.6241 4.218 1.7353 1.119 1.1111 1.75 2.6185 1.752 4.1912z" fill="#504F60"/><path opacity=".1" d="M127.897 84.6915v21.9495h-21.408c-2.902-.039-5.671-1.212-7.7095-3.266-2.038-2.054-3.1807-4.8235-3.1807-7.7089 0-2.8853 1.1427-5.6545 3.1807-7.7085 2.0385-2.0539 4.8075-3.2272 7.7095-3.2661h21.408z" fill="#000"/><path d="M128.189 84.1067V106.06h-21.408c-2.902-.039-5.671-1.212-7.7094-3.266-2.038-2.054-3.1807-4.8234-3.1807-7.7087s1.1427-5.6546 3.1807-7.7085c2.0384-2.0539 4.8074-3.2273 7.7094-3.2661l21.408-.004z" fill="#33323D"/><path opacity=".1" d="M107.807 99.9464c2.377 0 4.304-1.9159 4.304-4.2792 0-2.3634-1.927-4.2793-4.304-4.2793-2.377 0-4.304 1.9159-4.304 4.2793 0 2.3633 1.927 4.2792 4.304 4.2792z" fill="#000"/><path d="M108.099 99.3655c2.377 0 4.304-1.9159 4.304-4.2793 0-2.3633-1.927-4.2792-4.304-4.2792-2.377 0-4.303 1.9159-4.303 4.2792 0 2.3634 1.926 4.2793 4.303 4.2793z" fill="#E17000"/><path d="M165.35 83.9177c.17 1.8322-1.224 3.6108-.818 5.4052.088.384.254.7461.314 1.134.168 1.0663-.47 2.075-1.08 2.9662l-5.243 7.6469c-.21.337-.461.645-.748.92-1 .887-2.505.795-3.821 1.06-.926.187-1.8.571-2.561 1.126-.032.027-.053.065-.057.107-.004.041.007.083.033.116.217.294.505.53.838.685.333.156.699.226 1.066.204.138.181 0 .446-.2.575-.282.199-.668.247-.724.72-.02.165.014.333.096.478.211.321.54.549.916.634 1.815.551 3.776-.418 5.134-1.737 1.359-1.319 2.333-2.984 3.666-4.327.738-.742 1.577-1.378 2.337-2.0984 1.516-1.4363 2.695-3.183 3.833-4.9317.342-.5272.687-1.0683.831-1.6791.144-.6108.076-1.2275.238-1.8183.212-.7759.782-1.3926 1.256-2.0432.931-1.2732 1.551-2.8309 1.429-4.3986-.122-1.5676-1.101-3.1174-2.589-3.6506-.462-.1842-.97-.2149-1.451-.0875-.61.187-1.06.6883-1.476 1.1678l-1.001 1.1439c-.249.251-.446.5485-.58.8754-.064.1641-.079.3431-.044.5156.036.1725.12.3312.244.4572" fill="#FBBEBE"/><path opacity=".05" d="M165.35 83.9177c.17 1.8322-1.224 3.6108-.818 5.4052.088.384.254.7461.314 1.134.168 1.0663-.47 2.075-1.08 2.9662l-5.243 7.6469c-.21.337-.461.645-.748.92-1 .887-2.505.795-3.821 1.06-.926.187-1.8.571-2.561 1.126-.032.027-.053.065-.057.107-.004.041.007.083.033.116.217.294.505.53.838.685.333.156.699.226 1.066.204.138.181 0 .446-.2.575-.282.199-.668.247-.724.72-.02.165.014.333.096.478.211.321.54.549.916.634 1.815.551 3.776-.418 5.134-1.737 1.359-1.319 2.333-2.984 3.666-4.327.738-.742 1.577-1.378 2.337-2.0984 1.516-1.4363 2.695-3.183 3.833-4.9317.342-.5272.687-1.0683.831-1.6791.144-.6108.076-1.2275.238-1.8183.212-.7759.782-1.3926 1.256-2.0432.931-1.2732 1.551-2.8309 1.429-4.3986-.122-1.5676-1.101-3.1174-2.589-3.6506-.462-.1842-.97-.2149-1.451-.0875-.61.187-1.06.6883-1.476 1.1678l-1.001 1.1439c-.249.251-.446.5485-.58.8754-.064.1641-.079.3431-.044.5156.036.1725.12.3312.244.4572" fill="#000"/><path d="M169.318 131.087c-1.145.694-2.571.736-3.902.575-.214-.026-.468-.042-.6.123-.2.239.036.597.28.782.785.586 1.707.963 2.679 1.096.868.122 1.744.18 2.621.173 2.401.042 4.802.082 7.165-.26.14-.011.276-.05.4-.116.153-.106.258-.266.296-.447.162-.613-.15-1.27-.622-1.695-.472-.426-1.078-.663-1.671-.892l-2.08-.805c-.489-.189-1.271-.691-1.801-.651-.997.072-1.939 1.635-2.765 2.117z" fill="#3F3D56"/><path opacity=".05" d="M169.318 131.087c-1.145.694-2.571.736-3.902.575-.214-.026-.468-.042-.6.123-.2.239.036.597.28.782.785.586 1.707.963 2.679 1.096.868.122 1.744.18 2.621.173 2.401.042 4.802.082 7.165-.26.14-.011.276-.05.4-.116.153-.106.258-.266.296-.447.162-.613-.15-1.27-.622-1.695-.472-.426-1.078-.663-1.671-.892l-2.08-.805c-.489-.189-1.271-.691-1.801-.651-.997.072-1.939 1.635-2.765 2.117z" fill="#000"/><path d="M170.776 103.621c-.866 1.146-1.762 2.469-1.548 3.887.116.764.546 1.439.862 2.145.428.959.652 1.989.872 3.016.325 1.5.651 3.004.849 4.528.226 1.721-.837 6.7-.935 8.433-.024.418-.074.869-.366 1.17-.114.119-.266.214-.318.37-.03.149-.006.305.07.437.488 1.094 1.487 1.91 2.601 2.376 1.115.465 3.802 1.269 5.016 1.311.16.017.322-.004.472-.062.162-.098.289-.243.364-.416.871-1.655.034-7.54.046-9.408.012-1.557.383-3.105.315-4.661-.056-1.249-.401-2.471-.515-3.716-.2-2.041.176-4.092.555-6.11.288-1.547.578-3.095.948-4.623.226-.933.488-1.874 1-2.6838.401-.6426.963-1.1798 1.429-1.7905 1.294-1.6868 1.869-3.8119 1.601-5.9166-.028-.1989-3.002.75-3.264.8634-1.069.4503-2.053 1.0794-2.909 1.8602-.688.6525-1.23 1.5238-1.833 2.254-.852 1.0331-1.694 2.0736-2.525 3.1213-.948 1.198-1.877 2.403-2.787 3.615z" fill="#464353"/><path opacity=".05" d="M170.776 103.551c-.866 1.146-1.762 2.471-1.548 3.888.116.766.546 1.44.862 2.146.428.957.652 1.99.872 3.014.325 1.502.651 3.006.849 4.528.226 1.723-.837 6.7-.935 8.433-.024.418-.074.872-.366 1.172-.114.117-.266.213-.318.368-.031.15-.006.305.07.438.488 1.096 1.487 1.91 2.601 2.387 1.115.477 3.802.893 5.016.933.16.018.322-.004.472-.062.162-.096.29-.241.364-.413.871-1.656.034-7.162.046-9.032.012-1.56.383-3.106.315-4.664-.056-1.249-.401-2.47-.515-3.714-.2-2.043.176-4.094.555-6.111.288-1.546.578-3.094.948-4.624.226-.933.488-1.874 1-2.6835.401-.6425.963-1.1797 1.429-1.7904 1.294-1.6867 1.869-3.8119 1.601-5.9166-.028-.1989-3.002.75-3.264.8634-1.069.4517-2.053 1.0814-2.909 1.8621-.688.6506-1.23 1.5219-1.833 2.252-.852 1.0332-1.694 2.0743-2.525 3.1234-.948 1.1886-1.877 2.3896-2.787 3.6026z" fill="#000"/><path d="M161.136 78.3832c2.682 0 4.856-2.1618 4.856-4.8284 0-2.6666-2.174-4.8283-4.856-4.8283-2.681 0-4.855 2.1617-4.855 4.8283 0 2.6666 2.174 4.8284 4.855 4.8284z" fill="#FBBEBE"/><path d="M165.51 73.3518a6.2685 6.2685 0 001.73 1.8065c.692.4806 1.475.8175 2.302.9906l-.366 1.323c-.633 2.2719-1.343 4.6752-3.108 6.2508.2-.7699-.056-1.5915-.492-2.26-.436-.6684-1.048-1.1937-1.648-1.7129l-2.796-2.4072a.85893.85893 0 01-.2-.2347.70233.70233 0 010-.5292c.357-1.1022 1.373-1.7905 2.201-2.5346a7.5891 7.5891 0 001.107-1.2812c.558-.7917.904.004 1.27.5889z" fill="#FBBEBE"/><path d="M154.74 68.7006l-.11-.9072c.766.1989 1.494-.4496 1.985-1.12.49-.6705.944-1.4603 1.69-1.7408.907-.3382 1.867.199 2.733.6525.97.5352 2.035.8797 3.136 1.0147.175.0057.349.0338.518.0835.564.199.832.9032.914 1.5418.082.6386.06 1.317.338 1.886.2.4317.573.752.801 1.1777.6 1.1419.02 2.7036.646 3.8237l-1.557-1.4185c-.142-.1293-.342-.2646-.5-.1552-.124.0876-.134.2766-.184.4278-.15.4416-.706.5729-1.108.3978-.403-.175-.697-.555-1.001-.9012-.688-.8077-1.508-1.5179-2.469-1.862-.421-.1565-.87-.2222-1.319-.1927-.448.0295-.885.1535-1.282.3637-.726.4079-1.258 1.3588-2.149 1.3926-1.22.0458-1.728-2.2142-2.293-3.1074.207-.1545.352-.3763.411-.6265.058-.2503.026-.5131-.09-.7423.082-.0338.872-.1273.89.012z" fill="#464353"/><path d="M94.6779 40.4727a9.42157 9.42157 0 00-1.0785 1.126c-.3297.41-.5052.9215-.4962 1.4463a.73773.73773 0 00.1401.4238.36084.36084 0 00.1805.1244.36185.36185 0 00.2196-.0031.53695.53695 0 00.2001-.175c.2115-.2527.4359-.4944.6723-.7242.086-.0855.2001-.175.3161-.1432a.3382.3382 0 01.1361.0895.91432.91432 0 01.2821.4377c.07.3044-.1081.6087-.3101.8475-.2021.2387-.4402.4675-.5222.7679a.33782.33782 0 000 .2467.37096.37096 0 00.156.1313c.2865.1568.6042.2492.9306.2705.3264.0213.6535-.0289.9582-.1472.4001-.1611.7563-.4376 1.1684-.5809.1785-.0485.3515-.1152.5163-.1989a1.0687 1.0687 0 00.2977-.2956c.0786-.1172.1332-.2486.1604-.3868.052-.2761.0622-.5584.0301-.8375-.0499-1.0808-.2826-2.1454-.6883-3.1493a.39808.39808 0 00-.1161-.1671.37167.37167 0 00-.2001-.0537c-.5122-.0537-1.3525-.3143-1.8467-.1254-.1728.0943-.322.2262-.4362.386-.092.1015-.6702.557-.6702.6903z" fill="#A1616A"/><path d="M94.5158 40.0231c0-.4854-.6002-1.6572.3541-1.7347 0-.5193-.7383-.8416-.6002-1.3926.044-.1831.2001-.3323.2181-.5193.06-.5312-.9044-.8196-.7443-1.3289.06-.199.2721-.3143.3181-.5113.1081-.4595-.7183-.6645-.7343-1.136 0-.1591.0901-.3083.0821-.4675 0-.1989-.1741-.3501-.2702-.5232-.2501-.4436-.128-1.13-.5842-1.3588.3021.0259.4002-.4197.2761-.6923-.124-.2725-.3781-.5093-.3801-.8117a1.2171 1.2171 0 000-.3302c-.0841-.2905-.5622-.3143-.6423-.5968a2.53902 2.53902 0 01-.01-.3263c-.032-.2248-.2641-.368-.4822-.4317a1.97237 1.97237 0 01-.6442-.2288c-.1401-.1054-.3022-.2805-.4522-.1989-.056.0338-.0841.0975-.1261.1452-.18.2089-.5242.1174-.7503-.0358-.6682-.4516-1.0004-1.2613-1.1424-2.0511-.1421-.7898-.1381-1.6055-.3162-2.3873a5.08503 5.08503 0 00-.216-.7162c-.0761-.1989-.3202-.5113-.3362-.7122-.036-.4576.9164-.1452 1.2785-.0995.3516.0342.6993.1008 1.0385.199.362.136.7166.2907 1.0624.4635 1.4446.6346 3.1893.7122 4.3497 1.7786.3822.3501.7043.8096 1.2005.9688.2276.0434.4521.1012.6723.1731.5502.2566.6362.9828.9364 1.508.0943.1387.1766.2851.246.4376.0579.1799.085.3682.0801.5571l.042 1.3786c.068 2.3097.1361 4.6254-.112 6.9212-.0801.758-.2001 1.5378.026 2.266.06.1989.144.3859.2001.5868.0494.2356.0749.4756.076.7162l.032.8933a.27733.27733 0 01-.044.1989.28954.28954 0 01-.1145.0562.28923.28923 0 01-.1276.0015c-1.2505-.1114-2.515-.8117-3.6955-.3879" fill="#464353"/><path d="M151.583 108.658c8.172 0 14.798-.952 14.798-2.127 0-1.174-6.626-2.126-14.798-2.126-8.173 0-14.798.952-14.798 2.126 0 1.175 6.625 2.127 14.798 2.127z" fill="#504F60"/><path d="M164.314 106.635c-.26-1.108-.422-2.081-.422-2.081s.06-1.206-.485-2.111v-2.5304c.155-.4046.345-.7953.567-1.1678.4-.7003 0-3.2666 0-3.2666s-1.495-3.6188-1.133-5.9146c.362-2.2957-3.069-10.1937-3.069-10.1937a9.998 9.998 0 01.322-2.256c.037-.1551.051-.3144.044-.4735v-.0577.0179c-.052-1.514-1.256-4.3509-1.256-4.3509l.162-5.4072s.768-3.1831-.485-7.4703c-.438-1.494-.718-2.6897-.896-3.6128-.02-.1034-.04-.1989-.056-.3004 2.579-.3979 4.55-.7162 4.55-.7162s-1.497-6.2248-2.507-7.3151c-1.011-1.0902-1.819-4.5139-1.819-4.5139s-.526-4.3947.324-5.6798c.851-1.2852.971-3.5014.971-3.5014s1.938-1.3926 2.182-2.0233c.245-.6306.647-2.0232.647-2.7613 0-.738-.242-1.3926-.162-1.7904.08-.3979-.567-1.8681-.242-2.5684.083-.2151.127-.4437.128-.6744v-.0199a9.40686 9.40686 0 00-.17-1.8263c-.561-.4709-1.216-.8186-1.921-1.0206l-.042-.1671-.11-.4376c-.062-.0404-.125-.0776-.19-.1114v-.1592l-.018-.6326.304-1.4205c.6-2.4708-2.719-2.8389-2.719-2.8389a1.7488 1.7488 0 00-.941-.8196c-.666-.2328-.11 3.7162.2 3.9788.235.199.959 1.4284 1.309 2.0372l.056.0995c-.055.0489-.106.1022-.152.1591l.126.8575.02.1313c-.22.2716-.399.5739-.53.8972 0 0 .6.6605.486 1.3926-.114.7321.186 1.6611.2 1.7109-.036-.0418-.462-.4994-.888-.388-.427.1114-1.617.4676-1.617.4676s-.888.1551-.8.3501c.088.195-.601 1.0504-.601 1.0504l-2.389-2.252c-.024-.0677-.05-.1353-.07-.199a5.52597 5.52597 0 01-.2-.9947c.261-.0615.516-.142.765-.2407.251-.0857.477-.2304.66-.4217.242-.2845.288-.6705.386-1.0246.188-.6923.6-1.307.886-1.9655a6.3577 6.3577 0 00.451-3.5372c-.037-.3691-.163-.724-.366-1.0345-.391-.5332-1.099-.75-1.613-1.1758-.514-.4257-.846-1.0763-1.447-1.3926-.542-.2884-1.2-.2546-1.812-.1551-1.196.196-2.345.6116-3.388 1.2254-.348.199-.732.4437-1.132.3701-.344-.0617-.6-.3343-.817-.5969.003-.0108.006-.0215.01-.0318-.009-.0097-.018-.0203-.026-.0318-.253.5587-.38 1.1658-.372 1.7785 0 .0955 0 .199.012.2845v.181c0 .0425-.006.0846-.018.1254-.05.1217-.127.231-.224.3203-.073.0829-.14.1714-.2.2646 0-.0319.02-.0637.032-.0975-.153.2215-.239.4816-.248.75-.011.1953.053.3875.18.5371.12.1157.25.2196.39.3104-.047.2626-.071.5289-.072.7958.005.7911.214 1.5676.609 2.2545.395.6869.961 1.261 1.644 1.6666.028.0657.054.1333.08.1989.306.7958.536 1.7308.434 2.5863 0 .0617-.018.1253-.028.187-.01.0617-.06.0656-.086.0995 0 0-3.947.0398-4.876-.7958-.928-.8356-2.345 2.0431-2.345 2.0431s-1.414.2726-1.698 0c-.284-.2725-1.939-.0378-1.939-.0378-.678-.5994-1.56-.9196-2.467-.8952-.55-.4152-1.156-.7502-1.801-.9947l-.044-.0159c-.284-.1032-.589-.1413-.89-.1114 0 0-1.941-1.5916-2.507-2.451-.566-.8594-3.261-4.0326-3.273-4.0465v-.1532l-.03-.4615c-.081.0125-.161.0191-.243.0199-.014-.0458-.034-.0995-.054-.1612-.155-.4502-.346-.8872-.572-1.307 0 0 0-.5829.17-.7301s-.07-2.2859-.07-2.2859-1.748-4.06435-3.315-1.0305c0 0-2.961 1.9636-.476 4.2514 0 0 1 .4775 1.132.8555.092.2447.428.931.654 1.3925l.102.199-.028.0239.036.3819.016.1472c-.468.2646-.786.5272-.708.7242.138.337.233.6899.282 1.0504 0 0 3.438 4.2812 3.882 6.1095 0 0 9.218 5.447 12.249 5.835l-.536 2.7155c-.079.7369-.119 1.4773-.121 2.2182.041.5829-.364 3.2289-.364 3.2289s-.526 3.8913-.97 4.4364c-.444.5451-.364 2.8787-.364 2.8787-.105 1.1171-.306 2.2233-.6 3.3064-.445 1.4781-.122 3.3084-.122 3.3084s-1.535 3.5014 2.142 1.128c0 0 1.801-.1114 3.886-.183v.1989c0 .2666 0 .555-.014.8574-.028 2.0054-.04 4.7746.052 6.8596.162 3.6963 1.294 11.0114 1.294 11.0114v3.6824c-.073.3454-.109.6975-.108 1.0504-.024 1.2957.323 2.5714 1.001 3.6785l.284 2.4509s.664 1.6154.676 2.5863c-.002.0782-.012.1561-.028.2327-.026.1236-.036.2499-.032.376-.038 1.1141.636 3.7799.636 3.7799s.04 2.6837.445 2.8409c.346.1333-.463 1.5458-.703 1.9516-.006-.0248-.011-.0501-.014-.0756l-.05.0796c-.083.2173-.126.4479-.126.6804-.023.1832.008.3692.087.5361.079.1669.205.308.361.4069.769.4676 1.181.8556.529 1.0106-.24.037-.478.087-.713.149 0-.03-.024-.061-.034-.089-.092.035-.168.102-.217.187-.048.086-.066.185-.049.282.006.316.088.625.238.903.647 1.441 1.095 1.99 1.095 1.99l.31-.034c-.046.118-.106.229-.18.332-.118.167-.275.303-.456.398-.17.101-.359.165-.555.189-.219.007-.434.06-.631.155-.197.096-.372.231-.513.398-.4.519-.656 1.226.14 1.846l2.891.995s4.974.643 4.71-.467c-.264-1.111-.424-2.081-.424-2.081a4.3777 4.3777 0 00-.4-1.968c-.052-.101-.111-.198-.176-.29l.176-.018s.364-2.453.848-2.919c.112-.107.138-.199.112-.254.05-.134-.078-.211-.24-.257l-.036.097c-.158-.034-.32-.052-.482-.053 0 0-.162-1.2835.364-1.751a.50884.50884 0 00.091-.1804c.017-.0657.021-.1343.011-.2015.004-.1761-.015-.352-.056-.5233a.20516.20516 0 01-.018.0319c-.264-1.1658-1.16-3.018-1.16-3.018s-.041-1.1658.284-1.6333c.324-.4675-.042-6.3423-.042-6.3423s.122-2.8389-.242-4.1618c-.365-1.323.444-2.8807.444-2.8807v-.1035l-.046-.4476a.13011.13011 0 000 .0279c-.082-.752-.236-2.1148-.35-2.7434-.163-.8953.042-5.1725.042-5.1725l.726-1.8303 1.294 3.1532 1.375 4.2017s.68.8873.696 1.7905v.1313c-.011.0931-.016.1867-.016.2805a2.4908 2.4908 0 00.418 1.498s.364 1.9894.931 2.4888c.566.4993.566 1.4781.566 1.4781s.686 2.8807 1 3.382c.272.4258.286 1.5916.284 1.9556v.1035s.096 1.0305.092 1.8939v.3084a.08031.08031 0 000-.0219c0 .2359-.028.4709-.084.7003l-.012.0397c0-.0497 0-.0974.014-.1452a7.3432 7.3432 0 00-.2 1.7905c-.018 1.0345.14 2.26.771 2.9841 1.092 1.2454 1.778 1.0902 1.778 1.0902s-.524 1.5558-1.172 1.8676a.3175.3175 0 00-.068.044c0-.032-.012-.061-.016-.091-.072.077-.128.169-.162.269s-.047.206-.038.312c-.046.684.388 1.79.8 2.305.153.149.341.259.546.319-.032.023-.066.043-.102.061-.072.04-.146.075-.222.106-.105.044-.216.073-.33.085-.219.006-.435.059-.632.154-.198.095-.372.231-.512.399-.401.518-.657 1.224.14 1.845l2.891.994s4.942.631 4.682-.477z" fill="url(#paint0_linear)"/><path d="M145.324 108.473l-2.801-.995c-.772-.62-.526-1.327-.136-1.846.134-.165.303-.3.494-.396.191-.095.401-.149.614-.157.19-.024.372-.088.535-.189.177-.096.329-.232.444-.398.204-.322.314-.695.318-1.076 0 0 3.073-.895 3.913 0 .15.162.276.345.373.543.279.618.416 1.29.4 1.968 0 0 .156.97.41 2.081.254 1.11-4.564.465-4.564.465zM159.018 107.1l-2.802-.994c-.772-.621-.526-1.327-.136-1.845.134-.166.302-.301.493-.397.191-.095.4-.148.614-.156.111-.011.219-.04.32-.085.074-.031.146-.066.216-.106.782-.427.762-1.478.762-1.478s3.072-.895 3.914 0c.113.122.211.255.294.398.526.905.468 2.113.468 2.113s.156.973.4 2.081c.245 1.108-4.543.469-4.543.469z" fill="#2D293D"/><path opacity=".1" d="M148.707 103.414c.15.162.276.345.373.543l-4.602.531c.204-.322.314-.695.318-1.076 0 0 3.071-.893 3.911.002zM162.697 102.441v.858c-.716 1.171-4.18.915-5.186.328.074-.031.146-.066.216-.106.782-.427.762-1.478.762-1.478s3.072-.895 3.914 0c.113.122.211.255.294.398z" fill="#000"/><path d="M163.243 98.7449c-.214.3736-.397.7642-.546 1.1678v3.0733c-.784 1.283-4.852.856-5.402.155-.55-.7-1.125-2.522-.506-2.838.618-.3167 1.134-1.8685 1.134-1.8685s-.666.1552-1.723-1.0902c-1.056-1.2454-.742-4.0067-.546-4.6672.196-.6605 0-2.8787 0-2.8787s.04-1.5577-.272-2.063c-.312-.5053-.978-3.382-.978-3.382s0-.9728-.548-1.4782c-.549-.5053-.901-2.4907-.901-2.4907-.32-.4962-.458-1.0873-.39-1.6731.116-.9728-.666-2.0232-.666-2.0232l-1.331-4.2037-1.252-3.1512-.705 1.8282s-.2 4.2793-.038 5.1725c.162.8933.401 3.2687.401 3.2687s-.783 1.5557-.431 2.8786c.353 1.323.225 4.1659.225 4.1659s.352 5.8728.038 6.3403c-.315.4675-.275 1.6353-.275 1.6353s1.601 3.4218 1.097 3.8893c-.504.4675-.352 1.7509-.352 1.7509s1.094 0 .626.467c-.468.468-.822 2.919-.822 2.919l-4.732.551s-.432-.543-1.059-1.99c-.626-1.446.116-1.283.747-1.44.63-.157.232-.543-.513-1.0105-.744-.4676-.312-1.518-.312-1.518s1.135-1.9058.743-2.061c-.393-.1552-.431-2.8409-.431-2.8409s-.782-3.1831-.586-4.0465c.196-.8634-.626-2.9165-.626-2.9165l-.274-2.4509c-.837-1.3909-1.143-3.035-.861-4.6314v-3.7799s-1.096-7.3131-1.252-11.0095c-.1-2.3674-.072-5.5982-.04-7.6135.02-1.13.04-1.88.04-1.88l16.903-1.7507s-.016.7759.306 2.4968c.174.9231.444 2.1187.868 3.6128 1.213 4.2792.47 7.4682.47 7.4682l-.158 5.4093s1.487 3.6167 1.175 4.8621c-.189.7395-.295 1.4974-.316 2.26 0 0 3.325 7.898 2.973 10.1938-.352 2.2958 1.094 5.9145 1.094 5.9145s.396 2.5664.004 3.2667z" fill="#464353"/><path opacity=".05" d="M153.579 78.4766l5.146-.6823s-2.915 2.9582-5.146.6823z" fill="#000"/><path opacity=".1" d="M157.981 72.7949s.176 1.8103-.938 2.4907c0 0 1.995-.3104.938-2.4907zM157.665 67.0375s-4.302 3.5213-5.866 3.2288c-1.565-.2924 5.866-3.2288 5.866-3.2288zM147.201 80.1279s-3.267.738-3.365 2.0431c-.099 1.305 3.365-2.0431 3.365-2.0431z" fill="#000"/><path opacity=".05" d="M147.919 96.3535s-4.616.8555-3.305 1.4384c1.31.5829 3.463 1.0504 3.463 1.0504s1.491.0776-.158-2.4888z" fill="#000"/><g opacity=".05" fill="#000"><path opacity=".05" d="M143.681 98.719a.907.907 0 01-.287-.2843.90907.90907 0 01-.135-.3802l-.048.0816s-.43 1.0504.314 1.5159c.084.0537.166.1074.241.1591.138-.0259.286-.0457.428-.0815.63-.1552.232-.5431-.513-1.0106zM149.628 98.4066c.128-.1154.124-.4138.046-.7958-.2.3004-.258.7699-.262 1.126.048-.1236.122-.236.216-.3302zM148.918 79.0516c-.17.4601-.275.9415-.313 1.4304.09-.3377.21-.6667.359-.9828l-.046-.4476zM159.49 77.0104c.031-.1398.045-.2827.042-.4257-.058.2904-.098.559-.128.7958.026-.1214.054-.2368.086-.3701zM148.808 92.884c.064-.0955.1-.4178.116-.8654-.145.3464-.222.7171-.227 1.0922.028-.0798.065-.1559.111-.2268zM149.768 100.221c-.243.78-.423 1.579-.538 2.387l-4.732.543s-.432-.543-1.059-1.989c-.05-.112-.095-.226-.134-.342-.284.129-.4.422-.024 1.275.627 1.44 1.061 1.989 1.061 1.989l4.732-.545s.352-2.451.82-2.918c.24-.225.092-.342-.126-.4zM143.525 93.2341s.038 2.6838.431 2.8389c.2-.4436.33-.8654.154-.935-.401-.1552-.431-2.8409-.431-2.8409s-.782-3.183-.586-4.0465c.196-.8634-.626-2.9164-.626-2.9164l-.274-2.451c-.837-1.3908-1.143-3.0349-.86-4.6314v-3.7799s-1.097-7.3131-1.253-11.0094c-.1-2.3674-.072-5.5982-.04-7.6135 0-.3641.012-.6864.018-.9589l-.134.0139s-.022.748-.04 1.88c-.032 2.0153-.062 5.2461.04 7.6115.156 3.6964 1.25 11.0114 1.25 11.0114v3.78c-.28 1.596.026 3.2392.863 4.6293l.272 2.451s.822 2.061.626 2.9185c-.196.8574.59 4.0484.59 4.0484zM157.455 102.103c-.384-.553-.641-1.185-.75-1.848-.483.433.072 2.117.6 2.785.546.7 4.616 1.128 5.402-.157v-.74c-1.066 1.04-4.736.622-5.252-.04zM163.401 97.7063c-.214.3737-.398.7643-.548 1.1678v.5511c.09-.1989.216-.4655.4-.7798.124-.3064.183-.6349.172-.9649 0 0-.018.0179-.024.0258zM157.695 98.3211c.149-.2997.278-.6087.386-.9251 0 0-.666.1552-1.722-1.0902-.769-.9052-.813-2.6161-.703-3.7341-.2.6624-.51 3.4238.546 4.6691.691.8137 1.213 1.0286 1.493 1.0803zM155.654 89.693c.069.7665.095 1.5363.078 2.3057.02-.1215.047-.2417.08-.3601.2-.6625 0-2.8787 0-2.8787s.04-1.5577-.274-2.063c-.314-.5053-.968-3.386-.968-3.386s0-.9728-.548-1.4781c-.549-.5053-.901-2.4908-.901-2.4908-.323-.4951-.465-1.0862-.4-1.6731.118-.9728-.664-2.0232-.664-2.0232l-1.331-4.2017-1.252-3.1512-.706 1.8302s0 .2308-.025.5969l.573-1.4861 1.252 3.1452 1.331 4.2017s.782 1.0504.664 2.0233c-.065.5868.077 1.1779.4 1.673 0 0 .352 1.9895.901 2.4908.548.5013.546 1.4781.546 1.4781s.666 2.8787.978 3.3821c.312.5033.266 2.065.266 2.065z"/></g><path d="M158.94 18.1137l-.295 1.4204.018.6326.012.4656-1.632.1671-.182-.3362c-.338-.6088-1.041-1.8462-1.267-2.0372-.302-.2507-.84-4.2017-.2-3.9669.394.1513.718.4427.909.8176 0 0 3.215.3661 2.637 2.837z" fill="#FFCDD3"/><path opacity=".1" d="M158.675 20.6323l-1.632.1671-.182-.3362c.219-.2486.519-.4138.847-.4675.328-.0537.665.0075.953.173l.014.4636z" fill="#000"/><path d="M159.088 21.4021l-2.153.4954-.046-.3183-.122-.8574s.852-1.13 2.085-.2825l.108.4356.128.5272z" fill="#E17000"/><path d="M124.214 18.2688l-2.299 1.2255-.2-.4297c-.218-.4556-.545-1.1419-.635-1.3926-.136-.378-1.094-.8554-1.094-.8554-2.401-2.2859.46-4.2514.46-4.2514 1.517-3.0339 3.201 1.0305 3.201 1.0305s.237 2.1426.071 2.2858c-.167.1433-.167.7301-.167.7301.22.4205.405.8576.555 1.3071.07.2168.108.3501.108.3501z" fill="#FFCDD3"/><path opacity=".1" d="M124.214 18.2689l-2.299 1.2254-.2-.4297c.324-.2705 1.474-1.1936 1.852-1.1558.181.0224.363.0271.545.0139.064.2129.102.3462.102.3462z" fill="#000"/><path d="M124.448 18.9592l-2.583 1.2653-.052-.5511-.036-.382s1.496-1.2752 1.938-1.2255c.224.0322.451.0322.675 0l.03.4616.028.4317z" fill="#E17000"/><path d="M152.679 27.5495s-11.26 1.2633-9.156.5829c1.465-.4755 2.047-1.3926 2.169-2.4271.1-.8614-.124-1.7905-.418-2.5862-.265-.706-.6-1.3838-1-2.0233 0 0 8.603-4.707 6.884-.4277-.265.6472-.429 1.3308-.488 2.0272-.051.6921.024 1.3878.222 2.0531.325 1.0796.943 2.049 1.787 2.8011z" fill="#FFCDD3"/><path opacity=".1" d="M151.152 20.6621c-.265.6473-.429 1.3308-.488 2.0272-.81.6784-1.698.6327-2.841.6327-.876 0-1.849.2108-2.549-.2089-.265-.706-.6-1.3838-1-2.0233 0 0 8.601-4.7069 6.878-.4277z" fill="#000"/><path d="M147.671 23.6204c2.571 0 4.656-2.0727 4.656-4.6294s-2.085-4.6294-4.656-4.6294c-2.571 0-4.656 2.0727-4.656 4.6294s2.085 4.6294 4.656 4.6294z" fill="#FFCDD3"/><path opacity=".1" d="M152.679 27.5495s-11.26 1.2633-9.156.5829c1.465-.4755 2.047-1.3926 2.169-2.4271.561-.5968 1.687-1.0405 2.401-1.2712.661-.2208 1.374-.2327 2.041-.0339.263.0787.512.1939.742.3422.328 1.0836.952 2.0553 1.803 2.8071zM159.088 21.4022l-2.153.4953-.046-.3183c.23-.3148.553-.5513.923-.6774.371-.126.771-.1354 1.148-.0268l.128.5272zM124.448 18.9591l-2.583 1.2653-.052-.5511c.836-.4472 1.706-.831 2.601-1.1478l.034.4336zM157.133 55.7614c-4.364.6923-10.566 1.5757-11.551 1.2772-.818-.2466-3.427-.2208-5.698-.1432.02-1.13.04-1.88.04-1.88l16.903-1.7507s-.016.7759.306 2.4967z" fill="#000"/><path d="M161.483 54.7428s-14.36 2.451-15.901 1.9895c-1.54-.4616-9.454.0378-9.454.0378-3.561 2.3733-2.074-1.128-2.074-1.128s-.313-1.8283.118-3.3065c.289-1.0852.486-2.1925.59-3.3103 0 0-.078-2.3356.352-2.8807.43-.5451.94-4.4344.94-4.4344s.391-2.646.353-3.2289c-.038-.5829.116-2.2182.116-2.2182l.51-2.7235c-2.935-.3879-11.857-5.835-11.857-5.835-.43-1.8282-3.755-6.1075-3.755-6.1075-.049-.3598-.141-.7125-.275-1.0504-.234-.6227 3.288-1.8681 3.288-1.8681s2.621 3.1831 3.169 4.0465 2.425 2.451 2.425 2.451c.292-.0298.586.0083.86.1114l.046.0139c.629.2455 1.219.5806 1.751.9947.882-.0208 1.738.3002 2.387.8953 0 0 1.601-.2348 1.879.0378.278.2725 1.642 0 1.642 0s1.369-2.8787 2.269-2.0432c.901.8356 4.72.7958 4.72.7958.508-.6724 1.747-1.1539 2.521-1.3926.661-.2199 1.374-.2317 2.041-.0338.288.0854.559.2201.8.3979l2.323 2.256s.665-.8575.587-1.0504c-.078-.193.782-.3502.782-.3502s1.134-.3501 1.564-.4675c.431-.1174.825.3462.861.388-.014-.0498-.308-.9948-.2-1.7109.108-.7162-.47-1.3926-.47-1.3926 1.368-3.3462 4.459-.5451 4.459-.5451s.352 1.8282.04 2.5285c-.312.7003.312 2.1784.234 2.5683-.078.39.159 1.0505.159 1.7905 0 .7401-.401 2.1387-.627 2.7613-.226.6227-2.113 2.0233-2.113 2.0233s-.118 2.2182-.94 3.5014c-.822 1.2831-.306 5.6718-.306 5.6718s.782 3.4238 1.761 4.514c.978 1.0902 2.425 7.3031 2.425 7.3031z" fill="#3F3D56"/><path opacity=".1" d="M140.55 29.143s-.43-1.2832-.822-1.3926c-.389-.1424-.769-.3112-1.135-.5053l.253-.4795s1.468.3979 1.704.8296c.236.4317 0 1.5478 0 1.5478zM132.685 26.3041c-.078.3979-3.561.7381-3.561.7381l1.76-1.7547.044.016c.632.2468 1.224.5839 1.757 1.0006z" fill="#000"/><path d="M122.609 21.2748c.172 0 .312-.1389.312-.3103 0-.1714-.14-.3104-.312-.3104s-.312.139-.312.3104.14.3103.312.3103zM123.009 21.8976c.173 0 .312-.139.312-.3104s-.139-.3103-.312-.3103c-.172 0-.312.1389-.312.3103 0 .1714.14.3104.312.3104zM123.401 22.4725c.173 0 .312-.1389.312-.3103 0-.1714-.139-.3104-.312-.3104-.172 0-.312.139-.312.3104s.14.3103.312.3103zM123.812 23.0932c.172 0 .312-.139.312-.3104s-.14-.3103-.312-.3103c-.173 0-.313.1389-.313.3103 0 .1714.14.3104.313.3104zM160.694 23.0016c.141 0 .254-.1131.254-.2526 0-.1395-.113-.2527-.254-.2527-.14 0-.254.1132-.254.2527 0 .1395.114.2526.254.2526zM160.734 23.5766c.141 0 .254-.1131.254-.2527 0-.1395-.113-.2526-.254-.2526-.14 0-.254.1131-.254.2526 0 .1396.114.2527.254.2527zM160.768 24.1495c.141 0 .254-.1131.254-.2526 0-.1396-.113-.2527-.254-.2527-.14 0-.254.1131-.254.2527 0 .1395.114.2526.254.2526z" fill="#575988"/><path opacity=".1" d="M140.564 39.6869c-.038-.0457 8.784 11.0293 15.63 4.6294.006.002-10.812 1.4602-15.63-4.6294zM135.502 45.4443s5.278.1433 5.831 1.6532v1.5717c-.151.0829-.32.1264-.492.1264s-.341-.0435-.491-.1264c-.532-.2865-3.723-1.8979-4.848-1.122v-2.1029z" fill="#000"/><path d="M135.6 45.4443s5.048.1373 5.576 1.5776v1.4961c-.143.0794-.305.1211-.47.1211-.164 0-.326-.0417-.47-.1211-.508-.2706-3.559-1.8084-4.636-1.0683v-2.0054z" fill="#3F3D56"/><path opacity=".1" d="M138.383 34.0489c.54 1.2411 1.227 2.4133 2.047 3.4914.892 1.1917 1.974 2.2312 3.201 3.0776 0 0-5.16-5.8488-5.248-6.569zM136.657 27.9514s.88 3.7798 3.149 5.063l-3.149-5.063zM135.306 28.3333c-.022-.0696-.782 2.9841 2.925 4.6811 0 0-1.574-.5312-2.925-4.6811zM158.353 25.7988c-.058 0 1.829 1.1936 2.343 1.7507 0 0-1.228-1.8303-2.343-1.7507z" fill="#000"/><path d="M146.413 23.1867c0 .101.022.2007.063.2929.042.0922.102.1749.177.2427.076.0679.164.1195.26.1516.097.0321.199.044.3.0349 1.418.0876 2.897.1492 4.202-.3979.244-.0868.464-.2315.64-.4217.232-.2845.278-.6704.372-1.0246.184-.6923.576-1.307.858-1.9655.478-1.1125.638-2.3343.463-3.5312a2.3716 2.3716 0 00-.357-1.0325c-.376-.5352-1.062-.752-1.56-1.1778-.498-.4257-.819-1.0762-1.401-1.3926-.524-.2904-1.166-.2546-1.757-.1551-1.161.196-2.273.6113-3.277 1.2235-.338.1989-.708.4436-1.096.37-.34-.0637-.589-.3482-.801-.6147-.272.6366-.387 1.3292-.334 2.0192.015.1013.012.2043-.01.3044-.049.121-.123.2302-.218.3203-.35.3979-.568 1.0444-.222 1.4543.15.177.382.2745.528.4555.262.3243.174.7958.168 1.2096-.014.1445.023.2895.104.4098.076.0702.169.1197.269.1437.101.0241.206.0219.306-.0064.198-.0594.406-.079.612-.0577.217.0701.404.2101.532.3979.646.8375.902 1.7487 1.179 2.7474z" fill="#2D293D"/><g opacity=".1" fill="#000"><path opacity=".1" d="M152.221 22.737c-.176.1902-.396.335-.64.4218-1.313.5431-2.789.4814-4.202.3979-.152.0015-.302-.0319-.438-.0975-.216-.1253-.298-.3879-.364-.6267-.276-.9947-.531-1.9078-1.187-2.7374-.126-.1914-.314-.335-.532-.4078-.206-.0194-.414.0002-.612.0577-.1.0285-.205.031-.305.0073a.60248.60248 0 01-.27-.1426c-.081-.1204-.118-.2654-.104-.4098 0-.4178.094-.8853-.168-1.2096-.146-.181-.378-.2785-.528-.4576a.90461.90461 0 01-.174-.4511.89799.89799 0 01.084-.4759c-.25.3978-.356.8972-.066 1.2394.15.177.382.2745.528.4555.262.3263.174.7958.168 1.2096-.015.1443.021.2893.102.4098.076.0705.169.1202.27.1443.101.024.207.0216.307-.007.198-.0594.406-.079.612-.0577.217.0701.404.2101.532.3979.654.8296.91 1.7407 1.187 2.7394.032.2458.155.4707.346.6307.137.0657.288.0984.44.0954 1.418.0876 2.897.1512 4.202-.3978.245-.0863.464-.2311.64-.4218.088-.1121.156-.2386.2-.374.002.0259-.012.0477-.028.0676zM143.165 15.991c.063-.0679.111-.1478.142-.2348a.8647.8647 0 000-.3044 4.2916 4.2916 0 01.218-1.6751l-.026-.0298c-.273.6357-.388 1.3279-.334 2.0173.006.0754.006.1513 0 .2268z"/></g><path opacity=".1" d="M145.582 25.9918s5.817.7679 6.339-.1015l-6.339.1015zM156.889 23.5985s3.233 0 3.943 1.2096l-3.943-1.2096z" fill="#000"/><path d="M174.978 131.057c-.959.852-2.205 1.315-3.491 1.297-.329 0-.783.062-.785.388.008.096.041.188.096.267.406.673 1.047 1.173 1.801 1.406.7.211 1.449.175 2.179.137l2.131-.109c.4-.022.8-.042 1.2-.092.4-.049.837-.131 1.255-.198 1.027-.146 2.066-.194 3.103-.144.276.01.6 0 .764-.199.164-.199.08-.579.018-.877-.128-.615 0-1.259-.118-1.876-.2-1.082-1.142-1.912-2.175-2.304-.96-.362-2.661-.778-3.569-.173-.958.635-1.545 1.695-2.409 2.477z" fill="#3F3D56"/><path d="M177.095 94.7978c.188.8893 1.054 1.5697 1.078 2.4768.022.7282-.5 1.3389-.876 1.9616-.355.6449-.654 1.3188-.894 2.0128-.709 1.81-1.588 3.548-2.625 5.193-.501.796-1.061 1.645-.947 2.57.08.433.233.849.454 1.23l1.501 2.964c.329.592.586 1.22.766 1.872.13.563.142 1.146.218 1.719.236 1.818 1.095 3.648.587 5.411-.044.151-.201.334-.323.229.497.921.895 1.848.857 2.892-.02.548-.188 1.118.014 1.628.086.213.236.412.234.64 0 .152-.07.293-.086.44-.042.42.346.77.748.903.402.134.84.124 1.247.245.78.233 1.338.901 2 1.365.68.465 1.481.724 2.305.746.118.012.237-.011.34-.068.059-.051.106-.114.139-.185.032-.07.049-.147.05-.225.036-.371-.02-.746-.164-1.091-.144-.345-.371-.649-.661-.886-.127-.079-.232-.189-.306-.319a.76558.76558 0 01-.028-.356c.121-1.63.091-3.268-.088-4.894-.081-.515-.107-1.037-.078-1.557.042-.434.174-.864.126-1.295-.048-.432-.27-.826-.4-1.242-.232-.74-.168-1.536-.2-2.31-.04-1.344-.35-2.665-.658-3.978-.122-.516-.257-1.055-.623-1.437-.312-.324-.816-.634-.698-1.066.065-.159.163-.303.286-.424.145-.181.251-.389.313-.612.061-.223.076-.456.043-.685.132.033.271.02.394-.037.123-.057.222-.155.281-.277 2.437-1.144 4.401-3.432 5.278-5.969.051-.188.131-.368.236-.533.226-.314.618-.449.966-.622 1.093-.547 1.847-1.572 2.539-2.5747.4-.5809.8-1.1817.981-1.8661.094-.4426.139-.8943.134-1.3468l.062-2.3376c.013-.1539-.002-.309-.044-.4576-.06-.1387-.146-.2645-.254-.37-.666-.6997-1.54-1.1683-2.494-1.3369-.64-.1134-1.294-.0915-1.942-.1452-1.257-.1034-2.497-.4914-3.754-.3979-1.975.1452-3.733 1.506-4.664 3.2448-.326.6127-.67 1.1459-1.37 1.1578z" fill="#464353"/><path d="M166.13 79.5986c.027.3609-.022.7233-.144 1.0644-.154.3262-.54.5809-.878.4476.102-.2288-.168-.4894-.42-.4615a.79082.79082 0 00-.336.1688c-.096.0825-.171.187-.218.3046-.167.3342-.224.7124-.16 1.0803.08.4576.346.8972.276 1.3568-.056.3819-.338.7619-.188 1.116.097.1618.219.3075.362.4317.197.2422.294.5505.27.8614-.024.3109-.167.6008-.4.8098l3.785.0756c-.138.6286.146 1.2712.47 1.8302.908 1.5369 2.162 2.8439 3.663 3.8183 1.501.9743 3.209 1.5897 4.989 1.7978-.096.0559-.179.1324-.242.2239s-.104.1957-.122.3052c-.017.1095-.01.2214.021.3278a.7587.7587 0 00.161.2871c.308.3043.83.2666 1.216.0696.386-.1969.689-.5232 1.041-.7759.621-.4379 1.38-.6411 2.139-.5729.474.0457.934.1989 1.41.2228 1.401.0736 2.601-.9291 3.95-1.3389.982-.3004 2.097-.3004 2.921-.9111.356-.2627.648-.6944.544-1.1201a1.86533 1.86533 0 00-.4-.6585c-.474-.6107-.754-1.3448-1.094-2.0391-.674-1.3747-1.602-2.611-2.736-3.6447-.855-.7435-1.762-1.4268-2.713-2.0451-.23-.1687-.475-.3159-.732-.4396-.332-.1453-.7-.2149-1-.3979-.445-.2786-.701-.7699-1.043-1.1658-.75-.8714-1.903-1.2713-2.827-1.9556-.62-.4596-1.168-1.0644-1.909-1.2852-.36-.1094-.742-.1174-1.102-.2248-.818-.2467-1.415-.9688-2.217-1.2613-.634-.2308-1.335-.1711-2.001-.2526a4.70444 4.70444 0 01-2.091-.7918c-.2-.1624-.425-.2926-.666-.386-1.014-.3064-1.096 1.5717-1.2 2.2222-.134.9669-.379 1.9277-.379 2.9065z" fill="#E17000"/><path d="M167.119 85.8971c.17 1.8343-1.223 3.6108-.816 5.4073.086.3819.252.746.312 1.1339.17 1.0644-.471 2.073-1.081 2.9643l-5.242 7.6494c-.21.336-.462.644-.748.919-1.001.885-2.505.796-3.822 1.058-.925.189-1.798.573-2.561 1.126-.034.027-.057.066-.063.108-.006.043.005.086.031.121.218.294.506.53.838.685.332.156.698.226 1.065.204.138.18 0 .446-.19.575-.28.199-.668.245-.724.721-.019.165.014.332.096.477.212.321.54.547.916.633 1.815.553 3.776-.418 5.134-1.737 1.359-1.319 2.333-2.984 3.666-4.325.738-.744 1.576-1.379 2.337-2.099 1.516-1.438 2.697-3.183 3.833-4.9317.342-.5272.688-1.0683.83-1.6791.142-.6107.076-1.2294.238-1.8203.213-.7739.783-1.3926 1.257-2.0412.93-1.2732 1.553-2.8309 1.429-4.4005-.124-1.5697-1.101-3.1175-2.589-3.6506-.462-.1825-.971-.2131-1.451-.0876-.61.187-1.06.6884-1.477 1.1698l-1 1.1419c-.244.2529-.435.551-.562.8774-.065.1644-.08.3438-.045.5167.036.1729.121.332.245.4581" fill="#FBBEBE"/><path d="M169.776 78.3731c-.688.0398-1.447.1075-1.933.5969-.204.2247-.369.4815-.488.7599-.472.9569-.932 1.9576-.966 3.0239-.028.8515.22 1.6851.35 2.5266.108.7003-.166 1.4145-.218 2.1227.854-.2606 1.982-.6147 2.757-1.0544.528-.3004 1.038-.6426 1.614-.8336.823-.2725 2.201.199 2.984.577.042-.5451-.371-1.4961-.327-2.0432a2.325 2.325 0 01.122-.6764c.118-.2306.256-.4498.415-.6545.297-.4814.434-1.0442.391-1.6077-.044-.5636-.265-1.099-.633-1.5296-.695-.7759-1.781-1.0663-2.818-1.1936-.652-.0753-1.31-.0979-1.966-.0677" fill="#E17000"/><defs><linearGradient id="paint0_linear" x1="141.301" y1="108.658" x2="141.301" y2="11.4431" gradientUnits="userSpaceOnUse"><stop stop-color="gray" stop-opacity=".25"/><stop offset=".54" stop-color="gray" stop-opacity=".12"/><stop offset="1" stop-color="gray" stop-opacity=".1"/></linearGradient></defs></svg>