<svg width="132" height="135" fill="none" xmlns="http://www.w3.org/2000/svg"><g clip-path="url(#clip0)"><path d="M107.678 37.2239s-2.464 1.4218-1.706 3.4125c0 0 2.559.7583 3.602 2.6541 1.043 1.8958 9.1 8.7208 9.1 8.7208l5.877-2.9385s-2.044-2.7293-8.511-4.635c0 0-3.812-4.0858-5.139-4.8442-1.327-.7583-3.223-2.3697-3.223-2.3697z" fill="#CBCDDA"/><path opacity=".05" d="M107.678 37.2239s-2.464 1.4218-1.706 3.4125c0 0 2.559.7583 3.602 2.6541 1.043 1.8958 9.1 8.7208 9.1 8.7208l5.877-2.9385s-2.044-2.7293-8.511-4.635c0 0-3.812-4.0858-5.139-4.8442-1.327-.7583-3.223-2.3697-3.223-2.3697z" fill="#000"/><path opacity=".1" d="M22.4698 127.964c-1.2654.313-2.5892-.053-3.8926-.068-1.3034-.015-2.8241.532-3.1435 1.796-.4291 1.697 1.5552 2.977 3.2541 3.4 6.5941 1.641 13.5745-.489 20.314.38 2.84.366 5.6019 1.262 8.4574 1.476 6.536.489 12.9221-2.62 19.4671-2.269 3.2789.175 6.466 1.216 9.7453 1.384 7.8464.399 15.5873-4.207 23.2685-2.557 2.1689.467 4.2049 1.417 6.3549 1.967 5.433 1.391 11.153.151 16.622-1.089 1.087-.247 2.396-.726 2.53-1.832.147-1.22-1.253-1.985-2.419-2.375-12.744-4.262-26.3882-6.52-39.6809-4.55-3.025.449-6.0413 1.115-9.099 1.071-6.7677-.098-12.9866-3.628-19.6307-4.919-12.5895-2.447-25.1769 3.261-36.7341 8.821" fill="#E17000"/><path d="M39.9187 91.7963h-3.854V124.38s24.8761 8.059 49.0514 0V91.7963H39.9187z" fill="#3F3D56"/><path d="M60.24 95.6503c13.3517 0 24.1754-1.6471 24.1754-3.6788 0-2.0318-10.8237-3.6789-24.1754-3.6789-13.3516 0-24.1753 1.6471-24.1753 3.6789 0 2.0317 10.8237 3.6788 24.1753 3.6788z" fill="#3F3D56"/><path opacity=".1" d="M60.24 95.6503c13.3517 0 24.1754-1.6471 24.1754-3.6788 0-2.0318-10.8237-3.6789-24.1754-3.6789-13.3516 0-24.1753 1.6471-24.1753 3.6789 0 2.0317 10.8237 3.6788 24.1753 3.6788z" fill="#000"/><path d="M88.3423 52.8656C82.2437 75.4098 61.3544 89.372 61.3544 89.372S50.353 66.7828 56.4517 44.2386C62.5503 21.6943 83.4396 7.73206 83.4396 7.73206S94.441 30.3213 88.3423 52.8656z" fill="#3F3D56"/><path d="M32.8616 52.8656C38.9603 75.4098 59.8495 89.372 59.8495 89.372s11.0014-22.5892 4.9027-45.1334C58.6536 21.6943 37.7644 7.73206 37.7644 7.73206S26.763 30.3213 32.8616 52.8656z" fill="#E17000"/><path d="M41.8232 48.0206c16.7347 16.2906 18.7788 41.333 18.7788 41.333s-25.0884-1.3698-41.8232-17.6604C2.04403 55.4026 0 30.3601 0 30.3601s25.0884 1.3698 41.8232 17.6605z" fill="#3F3D56"/><path d="M79.3808 48.0206C62.646 64.3112 60.602 89.3536 60.602 89.3536s25.0884-1.3698 41.823-17.6604c16.735-16.2906 18.779-41.3331 18.779-41.3331s-25.0885 1.3698-41.8232 17.6605z" fill="#3F3D56"/><path d="M60.5904 15.4162c4.2571 0 7.7081-3.4511 7.7081-7.70812C68.2985 3.45103 64.8475 0 60.5904 0c-4.2571 0-7.7081 3.45103-7.7081 7.70808 0 4.25702 3.451 7.70812 7.7081 7.70812zM14.4324 62.2951c.5465 1.9832 2.4454 3.1897 2.4454 3.1897s1.0127-2.0089.4662-3.9921c-.5466-1.9832-2.4454-3.1897-2.4454-3.1897s-1.0128 2.0089-.4662 3.9921zM24.6624 73.34c-.5883 1.9713.3817 4.0011.3817 4.0011s1.9239-1.1662 2.5122-3.1374-.3818-4.0011-.3818-4.0011-1.9239 1.1662-2.5121 3.1374zM98.4504 86.0208c-1.4439 1.4653-1.5389 3.713-1.5389 3.713s2.2461-.1279 3.6905-1.5932c1.443-1.4653 1.538-3.713 1.538-3.713s-2.2457.128-3.6896 1.5932z" fill="#E17000"/><path d="M123.035 118.081s.284 4.171.758 4.645c.474.474-4.266.758-4.266.758l.664-5.403h2.844z" fill="#FFB9B9"/><path opacity=".05" d="M123.035 118.081s.284 4.171.758 4.645c.474.474-4.266.758-4.266.758l.664-5.403h2.844z" fill="#000"/><path d="M124.077 121.304s-.663 0-3.033 1.232c0 0-1.612-.284-2.275-2.559 0 0-1.991 3.412-3.318 3.602-1.327.189-3.886.379-2.18 2.654s11.754 1.232 11.754 1.232.285-5.498-.948-6.161z" fill="#CBCDDA"/><path opacity=".05" d="M124.077 121.304s-.663 0-3.033 1.232c0 0-1.612-.284-2.275-2.559 0 0-1.991 3.412-3.318 3.602-1.327.189-3.886.379-2.18 2.654s11.754 1.232 11.754 1.232.285-5.498-.948-6.161z" fill="#000"/><path d="M122.655 124.527l-.663 1.801-4.361-1.232.249-1.788.06-.432.165-1.193s3.697-.948 3.697-.474c.05.391.131.777.243 1.155.152.583.342 1.247.47 1.684.084.289.14.479.14.479z" fill="#FFB9B9"/><path d="M120.276 99.8051c-.298.5049-.637 1.4529-.008 2.6379.186.343.415.66.681.945 2.086 2.275 2.654 7.394 2.654 7.394v8.247l-1.422.109-2.275.175-3.412-14.029s-1.991-10.2374-1.043-12.0384c.948-1.8011 1.801-13.0813 1.801-13.0813l.787-.8152 1.867-1.9337h5.404c.432.3101.791.7114 1.051 1.1754.907 1.5015 1.721 4.6239-.767 10.3891-3.887 9.0052-5.024 10.4271-5.024 10.4271-.113.1211-.211.2547-.294.3981z" fill="#4C4C78"/><path opacity=".05" d="M120.276 99.8051c-.298.5049-.637 1.4529-.008 2.6379.186.343.415.66.681.945 2.086 2.275 2.654 7.394 2.654 7.394v8.247l-1.422.109-2.275.175-3.412-14.029s-1.991-10.2374-1.043-12.0384c.948-1.8011 1.801-13.0813 1.801-13.0813l.787-.8152 1.867-1.9337h5.404c.432.3101.791.7114 1.051 1.1754.907 1.5015 1.721 4.6239-.767 10.3891-3.887 9.0052-5.024 10.4271-5.024 10.4271-.113.1211-.211.2547-.294.3981z" fill="#000"/><path opacity=".1" d="M122.045 122.364l-4.105.513.165-1.194s3.697-.948 3.697-.474c.05.391.131.777.243 1.155z" fill="#000"/><path d="M120.001 87.653s.236 7.462.275 12.1522c.009 1.0608.008 1.9798-.008 2.6378.005.348-.021.696-.077 1.04-.285.853.284 2.749.284 2.749 2.37 6.256 1.706 11.754 1.706 11.754v4.171l-4.55.569s.759-.569-1.327-6.067c-1.198-3.158-1.458-6.253-1.461-8.316-.011-1.129-.237-2.246-.666-3.29-.131-.352-.213-.721-.242-1.096-.19-1.896-1.043-4.2655-1.043-4.2655s-2.275-6.7302-2.844-11.6594c-.263-2.3462-.218-4.7167.132-7.0515.084-.5935.198-1.1822.342-1.7641 0 0 9.267-5.8315 12.766-1.801.336.3943.603.8431.789 1.3271.193.4782.342.9724.448 1.4768 1.089 5.3491-4.524 7.4336-4.524 7.4336z" fill="#4C4C78"/><path d="M119.717 46.1343c2.67 0 4.834-2.1644 4.834-4.8344 0-2.6699-2.164-4.8343-4.834-4.8343-2.67 0-4.834 2.1644-4.834 4.8343 0 2.67 2.164 4.8344 4.834 4.8344z" fill="#FFB9B9"/><path d="M117.063 44.3332s1.99 5.5927 0 8.5312c-1.991 2.9386 6.351 1.9907 6.351 1.9907l3.223-3.8865s-3.792 0-3.982-6.6354c-.189-6.6354-5.592 0-5.592 0z" fill="#FFB9B9"/><path opacity=".1" d="M126.637 79.6904c-.688.2377-1.394.4147-2.112.5289-1.18.182-2.573.1887-3.386-.5289-.483-.4256-1.671-.4778-3.1-.3413-3.009.2882-7.081 1.4105-7.859 1.6314.084-.5935.198-1.1823.342-1.7641 0 0 9.267-5.8315 12.766-1.801h2.022c.432.3101.791.7114 1.051 1.1754.174.7546.276 1.0996.276 1.0996zM122.655 124.527l-.663 1.801-4.361-1.232.249-1.788c.749 1.657 2.026 1.882 2.026 1.882 1.379-.716 2.18-1.016 2.609-1.142.084.289.14.479.14.479z" fill="#000"/><path d="M122.94 124.053s-.664 0-3.034 1.232c0 0-1.611-.284-2.275-2.559 0 0-1.99 3.412-3.317 3.602-1.327.189-3.887.379-2.18 2.654 1.706 2.275 11.754 1.232 11.754 1.232s.284-5.498-.948-6.161z" fill="#CBCDDA"/><path d="M100.451 42.2258s.185-3.6919 4.065-3.3305c.109.0102.213.0472.304.1075s.165.142.217.2381c.052.096.079.2034.08.3125 0 .1091-.027.2166-.078.313l-.795 1.4974-3.793.862z" fill="#FFB9B9"/><path d="M122.845 52.1062s-4.645-.7583-5.877-1.7063c0 0-.948 1.8011-2.654.8532s-5.688-.8532-5.688-.8532-3.317-1.801-3.981-5.877c0 0-.663-2.4646-.474-3.1281 0 0-2.464-2.5594-3.697.8531.474 2.3698.853 2.1802.759 4.076l1.516 4.1708s.095 1.4219 2.844 3.3177c2.749 1.8959 5.877 4.8344 5.877 4.8344s-1.659.9005-1.043 5.0239c.753 5.0399-.379 12.2281-.379 12.2281v4.6448s9.479-2.749 11.091-1.3271c1.611 1.4219 5.498 0 5.498 0s-.474-1.6114-1.138-5.4979c-.663-3.8864.095-7.6781.095-7.6781s2.465-6.5406 3.602-9.1948c1.138-2.6541-.853-6.2562-2.844-7.5833-1.99-1.327-2.732-.5303-2.732-.5303s3.491 2.521-.775 3.3741z" fill="#CBCDDA"/><path opacity=".1" d="M114.489 40.1177c-.002.1973.031.3933.098.5791.11.2114.261.399.444.5523.71.6937 1.333 1.5181 1.583 2.4787.169.6503.16 1.3319.15 2.0038-.042 2.7218-.156 5.6594-1.837 7.8004-.618.7868-1.412 1.4125-2.158 2.0783a.65328.65328 0 00-.227.3038c-.021.1294.004.2619.07.3751.347.7205 1.077 1.1624 1.769 1.5634.316.1833.649.3716 1.014.3835.862.0279 1.432-.8826 2.216-1.2407 1.142-.5214 2.423.2043 3.557.7439.821.3907 1.682.691 2.568.8954 1.213.2799 2.585.3487 3.606-.3633.591-.416.994-1.0473 1.123-1.7579.082-.4632.07-1.0009.42-1.3145.181-.1616.427-.2287.623-.3719.303-.2221.447-.5959.576-.9488l1.168-3.1927c.151-.3373.229-.7027.228-1.0722-.056-.7688-.765-1.3268-1.477-1.6224-.711-.2956-1.499-.4413-2.125-.891-1.058-.7606-1.385-2.1808-1.48-3.4807-.065-.8928-.059-1.7893.019-2.6811.116-1.3224.374-2.7305-.214-3.9206-.628-1.2709-2.038-1.9198-3.343-2.4735-.501-.2127-1.016-.4285-1.56-.4525-.575-.0254-1.136.1659-1.68.3546-.865.2999-1.743.6883-2.636.8917-.501.1143-1.051.0288-1.535.2102-1.777.6667-.96 3.1385-.96 4.5696z" fill="#000"/><path d="M114.489 39.9281c-.002.1973.031.3933.098.5791.11.2114.261.399.444.5524.71.6936 1.333 1.518 1.583 2.4786.169.6504.16 1.3319.15 2.0038-.042 2.7218-.156 5.6595-1.837 7.8004-.618.7868-1.412 1.4125-2.158 2.0783a.65378.65378 0 00-.227.3038c-.021.1294.004.2619.07.3751.347.7205 1.077 1.1624 1.769 1.5634.316.1833.649.3716 1.014.3835.862.0279 1.432-.8825 2.216-1.2407 1.142-.5214 2.423.2043 3.557.7439.821.3907 1.682.691 2.568.8955 1.213.2799 2.585.3486 3.606-.3634.591-.416.994-1.0473 1.123-1.7579.082-.4632.07-1.0009.42-1.3145.181-.1616.427-.2287.623-.3719.303-.2221.447-.5958.576-.9488l1.168-3.1927c.151-.3373.229-.7027.228-1.0722-.056-.7687-.765-1.3268-1.477-1.6224-.711-.2955-1.499-.4413-2.125-.891-1.058-.7605-1.385-2.1808-1.48-3.4807-.065-.8928-.059-1.7893.019-2.681.116-1.3225.374-2.7306-.214-3.9206-.628-1.271-2.038-1.9199-3.343-2.4736-.501-.2126-1.016-.4284-1.56-.4524-.575-.0254-1.136.1658-1.68.3545-.865.3-1.743.6883-2.636.8917-.501.1143-1.051.0288-1.535.2103-1.777.6666-.96 3.1384-.96 4.5695z" fill="#B96B6B"/><path opacity=".05" d="M110.666 65.7971s.757-.1832 4.548-.752c3.792-.5687 10.427.7584 10.427.7584" fill="#000"/><path d="M6.47867 81.3841c.54654 1.9832 2.44539 3.1897 2.44539 3.1897s1.01272-2.0089.46618-3.9921c-.54655-1.9832-2.44539-3.1897-2.44539-3.1897s-1.01273 2.0089-.46618 3.9921z" fill="#E17000"/></g><defs><clipPath id="clip0"><path fill="#fff" d="M0 0h131.484v135H0z"/></clipPath></defs></svg>