<svg width="188" height="135" fill="none" xmlns="http://www.w3.org/2000/svg"><g clip-path="url(#clip0)"><path d="M36.8253 22.6694c3.6226 0 6.5593-2.9366 6.5593-6.5592s-2.9367-6.5593-6.5593-6.5593c-3.6226 0-6.5593 2.9367-6.5593 6.5593 0 3.6226 2.9367 6.5592 6.5593 6.5592zM16.8474 95.0786l4.0299-13.9759 1.3719.4287s-1.6291 10.4605-4.2014 13.1185l-1.2004.4287z" fill="#2F2E41"/><path d="M32.1952 20.0543s.5145 5.4875-.6859 7.0309c-1.2004 1.5433.7717 4.5443.7717 4.5443l3.6011 4.2871 5.316-2.4008.7717-4.4585-.5144-3.0868s-1.8006-1.8005-1.0289-5.0587c.7716-3.2582-8.2313-.8575-8.2313-.8575z" fill="#FFB9B9"/><path opacity=".1" d="M32.1952 20.0543s.5145 5.4875-.6859 7.0309c-1.2004 1.5433.7717 4.5443.7717 4.5443l3.6011 4.2871 5.316-2.4008.7717-4.4585-.5144-3.0868s-1.8006-1.8005-1.0289-5.0587c.7716-3.2582-8.2313-.8575-8.2313-.8575z" fill="#000"/><path d="M35.282 122.688v3.515l4.7158.943-.4288-5.83-4.287 1.372zM49.4295 121.316l-1.0291 4.887 2.0579 1.458 3.6012-2.658-.4287-4.202-4.2013.515z" fill="#FFB9B9"/><path d="M40.4265 126.717s-1.8006-3.043-5.1445-1.136c0 0-.6002 3.366-1.2004 3.623-.6002.257-3.9442 5.144 0 5.573 3.9441.429 5.9162-.857 5.9162-.857s-.7717.664.4287.321c1.2004-.343.6859-2.23.6859-2.23l-.6859-5.294zM52.1731 124.66s-2.658 1.886-3.0867 1.029c-.4287-.858-1.1147-.772-1.1147-.772s-2.4007 9.05-.8574 9.479c.9938.245 2.0377.191 3.001-.155 0 0 2.0578-1.441 2.0578-.327 0 1.115 5.7447 1.035 8.1455.949 2.4008-.086 1.1147-1.886 1.1147-1.886l-3.1725-3.087-3.6012-5.23s-1.6291-1.458-2.4865 0zM26.8792 67.2982l3.6012 34.5538s1.9721 21.093 2.315 21.436c.343.343 2.5723 1.457 7.4596 0l-1.1147-27.6092 2.0578-17.1484 4.7159 11.8324s1.1146 31.8102 1.8863 31.8102 5.4875 1.543 6.6021-.343c1.1147-1.886.9432-22.207.9432-22.207s-.5145-32.0675-4.2871-33.0965c-3.7727-1.0289-24.1793.7717-24.1793.7717z" fill="#2F2E41"/><path d="M36.8253 23.2268c3.2674 0 5.9162-2.6488 5.9162-5.9162s-2.6488-5.9162-5.9162-5.9162-5.9162 2.6488-5.9162 5.9162 2.6488 5.9162 5.9162 5.9162z" fill="#FFB9B9"/><path d="M37.1683 33.773s-.6002-3.6869-.6002-4.3728c0-.6859-2.658-1.1146-2.658-1.1146s-2.0578-2.3151-2.4866-1.9721c-.4287.343-6.9451 4.7158-7.974 5.316-1.0289.6002-2.1435 3.1725-2.0578 3.3439.0858.1715 5.4018 11.318 5.4018 11.318s2.315 6.8594.6859 10.4605c-1.6291 3.6012-3.6869 10.7178-.6859 12.1754 3.001 1.4576 17.5771 4.63 20.2351 1.8863 2.658-2.7437 4.5443-3.5154 5.2303-3.5154.6859 0-2.8295-11.9182-2.0578-13.0328.7716-1.1146-.343-8.0598-.343-8.0598l3.9441-11.0607s-.3429-6.1734-8.1455-7.5453l-4.6678-2.2632-3.8206 8.4366z" fill="#575A89"/><path d="M21.1345 68.8416s-.4287 4.1157-.4287 5.3161c0 1.2003-2.0578 8.2312.9431 9.0886 3.001.8575 2.7438-9.3459 2.7438-9.3459v-5.2302l-3.2582.1714zM56.7174 64.9832s.5145 3.9441.2573 4.8015c-.2573.8574 2.4865 8.317-1.2004 8.7457-3.6869.4287-2.7438-8.9172-2.7438-8.9172v-4.63h3.6869z" fill="#FFB9B9"/><path d="M20.3628 93.7067l2.4865-13.2043h.7717a5.1921 5.1921 0 011.0284 2.3869 5.1931 5.1931 0 01-.2567 2.5862c-1.0289 2.9152-1.8863 8.2312-1.8863 8.2312h-2.1436z" fill="#2F2E41"/><path d="M22.6779 33.9446l-1.2862 1.0289s-1.7148 27.2659-1.2861 29.3238c.4287 2.0578-1.5434 4.973.1715 5.2302 1.7148.2572 3.7726 1.3719 4.7158.686.9432-.686 1.1146-3.1725 1.4576-3.7727.343-.6002.9432-7.7168.9432-7.7168s1.8005-7.1166.6859-12.4326c-1.1147-5.316-2.1436-10.7177-2.1436-10.7177l-3.2581-1.6291zM49.8581 31.801l3.9441 3.344 3.001 17.4913s1.8864 13.633.4287 13.8045c-1.4576.1715-3.6869-.2572-4.63 0-.9432.2572-1.7149-.4287-1.7149-.4287s-1.0289-5.4875-1.0289-5.5732c0-.0858-.6859-6.3449-.6859-6.3449l-.8574-7.0309 1.2861-7.7168.2572-7.5453z" fill="#575A89"/><path d="M31.2521 112.741s-.5573 1.601-1.3256 3.781c-.3567 1.013-.7588 2.153-1.173 3.315-.2666.751-.5375 1.511-.8042 2.254-.4253 1.187-.8386 2.328-1.1995 3.307-.4768 1.292-.8635 2.305-1.071 2.777-.9431 2.144-18.17728-1.286-19.54915-2.144-1.37187-.857-1.71484-3.772-1.88632-7.888-.00086-.021-.00172-.043-.00172-.064-.0223-.831.18949-2.068.54361-3.52.17662-.725.38926-1.504.62591-2.312.31725-1.085.67737-2.222 1.05376-3.354 1.61711-4.861 3.52315-9.613 3.52315-9.613s3.34396-2.315 4.54436-3.8584c1.2004-1.5434 7.8025-2.7437 7.8025-2.7437 1.8863.0857 6.1734 7.3741 7.8883 9.6031 1.7148 2.229 1.0289 10.46 1.0289 10.46z" fill="#3F3D56"/><path d="M21.649 99.7088c.4261 0 .7716-.3455.7716-.7717 0-.4262-.3455-.7717-.7716-.7717-.4262 0-.7717.3455-.7717.7717 0 .4262.3455.7717.7717.7717zM22.8494 100.223c.2367 0 .4287-.192.4287-.4286 0-.2367-.192-.4287-.4287-.4287-.2368 0-.4288.192-.4288.4287 0 .2366.192.4286.4288.4286z" fill="#2F2E41"/><path d="M29.9265 116.522c-.3567 1.013-.7588 2.153-1.173 3.315l-23.34237-7.59c.31725-1.085.67736-2.222 1.05376-3.354l23.46161 7.629zM27.9493 122.091c-.4253 1.187-.8386 2.328-1.1996 3.307l-22.50811-7.319c-.02229-.831.18949-2.068.54362-3.52l23.16409 7.532z" fill="#F2F2F2"/><path d="M21.649 99.1085s1.7148 7.5455.6859 14.2335c-1.0289 6.688 2.5723 12.947 2.5723 12.947" stroke="#2F2E41" stroke-width="3" stroke-miterlimit="10"/><path d="M22.8493 99.7087s-3.3439 12.1753-3.4296 13.8903c-.0858 1.715-1.4577 13.976-3.1725 15.262" stroke="#2F2E41" stroke-width="3" stroke-miterlimit="10"/><path d="M32.2833 13.7004s-1.3391-3.4818.6027-4.6201l.5356 1.54s4.888-2.94613 6.1602-2.27655l-1.2052 1.60701s5.6915 0 6.0932 2.20964l-2.0087.067s2.1427 1.4061 2.2096 3.6827l-4.2853.2678 2.0757 1.2053s-7.7672 1.0713-9.6421-2.0088l-.5357-1.674z" fill="#2F2E41"/><path d="M31.1235 13.838s1.5433 3.0868 3.6011 2.3151c2.0578-.7717 0-3.6012 0-3.6012l-1.3719-.6859-2.2292 1.972z" fill="#2F2E41"/><path d="M164.211 62.5341l-27.986-34.9716a9.40035 9.40035 0 01-4.526 2.2853c-5.269 1.0376-10.414-2.5602-11.492-8.036-.372-1.8109-.242-3.689.375-5.4315.618-1.7425 1.699-3.2832 3.129-4.456L114.168 0 59.8045 46.4621l50.0425 62.5339 54.364-46.4619z" fill="#F2F2F2"/><path d="M129.437 28.1863c4.358 0 7.89-3.5323 7.89-7.8897 0-4.3573-3.532-7.8896-7.89-7.8896-4.357 0-7.889 3.5323-7.889 7.8896 0 4.3574 3.532 7.8897 7.889 7.8897z" fill="#F2F2F2"/><path d="M80.0706 55.4516l-2.414 2.7938 8.1328 7.0274 2.414-2.7938-8.1328-7.0274zM132.352 105.413l-2.414 2.794 7.209 6.229 2.414-2.794-7.209-6.229z" fill="#E17000"/><path d="M145.377 84.6045v.2166c-.005.544-.02 1.0855-.047 1.6246-.469 9.2254-4.449 17.9223-11.124 24.3073-6.674 6.386-15.539 9.977-24.776 10.037-9.237.061-18.1474-3.414-24.9052-9.712-6.7578-6.297-10.851-14.9412-11.4409-24.1597-.0493-.7655-.0739-1.5368-.0739-2.3138-.013-7.4942 2.3129-14.8057 6.6534-20.915.347-.4923.708-.9756 1.083-1.4498.2584-.3299.5243-.6523.7926-.9723 6.1081-7.2361 14.809-11.79 24.236-12.6845 9.427-.8946 18.829 1.9413 26.19 7.8994.435.352.864.7163 1.282 1.088.335.2978.664.6022.987.9132 6.367 6.0899 10.286 14.2987 11.018 23.0786.083 1.0043.125 2.0184.125 3.0424z" fill="#3F3D56"/><path d="M109.194 125.342c-22.463 0-40.7377-18.275-40.7377-40.7375-.0133-10.2772 3.871-20.1771 10.8696-27.7031l.9022.8372C73.441 65.0372 69.674 74.6379 69.687 84.6045c0 21.7835 17.7226 39.5065 39.507 39.5065 5.293.018 10.534-1.036 15.409-3.1a39.1994 39.1994 0 0012.952-8.904l.884.857c-3.787 3.931-8.33 7.054-13.356 9.182a40.4336 40.4336 0 01-15.889 3.196z" fill="#E17000"/><path d="M115.101 124.48h-10.338v10.338h10.338V124.48zM80.7464 62.2396a.20028.20028 0 01.0493.0295c.1944.16-.0493.4677-.0197.7212.0344.325.4676.3963.795.4283.3274.0345.7409.2979.5859.5883-.8222.2831-1.6541.0049-2.4935-.3175-4.3405 6.1093-6.6663 13.4208-6.6534 20.9151 0 .7778.0247 1.549.0739 2.3137a.93552.93552 0 00.224.1207c.2461.0935.5317.0763.7581.2092.1797.1058.3003.2929.48.3914.5145.2806 1.2283-.2585 1.7083.0763.124.113.2416.233.352.3593.443.384 1.1716.1256 1.6836.4136.3298.1846.4997.5538.6769.8886.4406.8368 1.1544 1.659 2.0972 1.7254.2973-.0136.5952-.0037.891.0296.2905.0664.576.32.5292.6129-.0812.5046.1674 1.0559.101 1.5605-.1207.9231-1.4277 1.3268-1.5385 2.2498a5.53811 5.53811 0 01-.0344.608c-.0591.2412-.2412.4381-.3052.6794-.1231.4553.2043.9107.5612 1.2159.3594.3077.7876.5736.9846 1.0018.2067.4554.1058.9844.1723 1.4794.1477 1.081 1.0805 1.881 2.0405 2.397.3076.129.5808.328.7975.581.2462.357.2216.827.3053 1.253.2018 1.041 1.0781 1.9 1.1027 2.961.0172.756-.4012 1.44-.6523 2.152-.2583.745-.3351 1.542-.224 2.323a36.24406 36.24406 0 004.4626 3.237c.0853-.126.1478-.266.1846-.413.0298-.164.0093-.332-.0589-.483a.81969.81969 0 00-.3226-.364c.2646-.1.5052-.254.7065-.453.0988-.102.1641-.231.187-.371a.69486.69486 0 00-.059-.412c.4332.054.9476.081 1.2331-.251.229-.266.2142-.664.1231-1.002-.125-.328-.2077-.67-.2461-1.019 1.0037.049 2.0097.015 3.0079-.101-.1445-.486-.4729-.898-.9157-1.147.4529-.076.864-.618 1.0068-1.053.1234-.445.1302-.913.0197-1.361a.72462.72462 0 01-.0148-.355c.0728-.156.2008-.28.3594-.347.7483-.431 1.4965-.861 2.2448-1.29.1335-.067.255-.156.3594-.263.2338-.278.1994-.694.0788-1.036-.1207-.342-.3126-.665-.3594-1.024-.1379-1.076 1.0141-1.849 1.403-2.863.1322-.4048.2036-.8271.2117-1.2529.032-.4578.0345-.987-.3151-1.2799-.3372-.2831-.8615-.2191-1.2135-.4825-.3224-.2412-.4332-.7064-.7852-.9009-.32-.1772-.7187-.064-1.0756-.1477-.6252-.1452-1.0191-.8664-1.6591-.9329-.3593-.0394-.768.1379-1.0633-.0713-.2609-.1871-.2708-.5588-.32-.8739a2.4414 2.4414 0 00-.675-1.2959 2.44156 2.44156 0 00-1.2942-.6782c-.3717-.059-.7753-.0369-1.0929-.2412-.32-.2068-.4652-.5932-.7187-.8812-.4037-.4603-1.0437-.6252-1.6418-.7655-.8123-.1895-1.6238-.3799-2.4344-.5711-.4307-.1033-.987-.1575-1.2209.2216a1.66219 1.66219 0 00-.1427.4553c-.088.2841-.2633.5332-.5011.7117a1.41196 1.41196 0 01-.8232.2828 1.5649 1.5649 0 00-.9206-.7139 5.7863 5.7863 0 01-.7483-.1772 1.0485 1.0485 0 01-.3348-.2592 1.04845 1.04845 0 01-.2049-.3706 1.049 1.049 0 01-.0417-.4214c.015-.1419.0587-.2792.1285-.4035.1396-.2498.1933-.5385.1528-.8218a1.30624 1.30624 0 00-.3768-.7462c-.4135-.3716-1.0116-.4627-1.5679-.4258-.1453-.3175.0984-.6744.3593-.9058.2634-.2289.5809-.4554.6375-.8.0911-.5415-.6005-.9526-1.1248-.7926-.5243.1625-.8591.672-1.0806 1.1741-.1075.2963-.254.577-.4357.8345a.8554.8554 0 01-.3656.2865.8558.8558 0 01-.4615.0531c-.4332-.1107-.5981-.6252-.6941-1.0584a6.90394 6.90394 0 01-.2314-1.7747c.0038-.605.2441-1.1845.6696-1.6147.7162-.6597 1.819-.5957 2.7863-.4898a.70992.70992 0 01-.1396-.4817.70916.70916 0 01.2135-.4537c.1294-.1149.285-.1966.4531-.2377a1.0638 1.0638 0 01.5118.0014c.2916.0604.5544.2174.7458.4455.2757.3348.3545.7902.5612 1.1692.2092.3816.6769.7065 1.0585.5022.3322-.1773.3839-.6351.3027-1.0019-.0837-.3643-.2584-.7212-.2289-1.0953.0566-.7114.7975-1.1421 1.4498-1.435.6523-.293 1.3981-.6893 1.5015-1.3982a1.3069 1.3069 0 01.0788-.4036.78783.78783 0 01.2929-.2757c1.9027-1.2578 3.8399-2.5329 6.0158-3.2196.1132-.0369.1255.0024.2412-.0246.1625-.0936.0542-.352-.1009-.4554-.1551-.1034-.3618-.1846-.4012-.3668-.0271-.1329.0517-.2658.0714-.4012a.50203.50203 0 00-.0437-.2382.50016.50016 0 00-.1503-.1898.49957.49957 0 00-.2218-.0972.49935.49935 0 00-.2414.0182c-.1748-.2314.1698-.4997.4504-.5785a12.30494 12.30494 0 012.5722-.4184.45814.45814 0 01.293.0492.34876.34876 0 01.106.2344.3481.3481 0 01-.0839.2431 2.68644 2.68644 0 01-.3914.3569 1.07558 1.07558 0 00-.2806 1.0806c.4554.2314.9477.4702 1.4523.3889.5021-.0812.9476-.6473.7113-1.0978-.219-.4209-.8812-.5169-.9944-.9772-.1329-.539.6301-1.019.4578-1.5458-.0738-.2314-.3052-.3692-.4824-.5341a1.45603 1.45603 0 01-.407-.7559 1.45558 1.45558 0 01.0895-.8539c-.2882.0503-.5842.031-.8634-.0563a1.83392 1.83392 0 01-.7415-.4459c-.384-.3864-.6892-.9993-1.2357-.9796-.4996.0147-.9304.5981-1.3981.4209-.1157-.0443-.2363-.1329-.347-.0812a.28623.28623 0 00-.0899.092.28697.28697 0 00-.0406.1221c-.1181.5686.0861 1.216-.224 1.7083-.3372.5341-1.1175.6079-1.5261 1.0904-.2215.2609-.3077.6129-.512.8886-.2043.2757-.635.4529-.8812.2117.1206-.2471.1536-.5279.0936-.7962a1.2128 1.2128 0 00-.4234-.6807 3.176 3.176 0 00-.7286-.3545 4.32113 4.32113 0 01-.8148-.4529.80686.80686 0 01-.2978-.32.73535.73535 0 01.0197-.507c.1246-.3555.3438-.6703.6339-.9106a2.07271 2.07271 0 011.0128-.4531c.3249-.0443.704-.0295.9206-.2781.1132-.1305.1723-.3298.3397-.3815a.49452.49452 0 01.3126.0369c.4061.1427.8098.2855 1.2159.4283a.83427.83427 0 00.4333.0714.29183.29183 0 00.1876-.1037.29168.29168 0 00.0659-.204c-.0394-.2019-.3495-.2979-.32-.5022a.3198.3198 0 01.1009-.1723c.439-.4669.9758-.8311 1.572-1.0664a4.34943 4.34943 0 011.8765-.2948c.1526.2536-.0886.5514-.2929.7656-.2018.2166-.3643.6006-.1181.7655a.64789.64789 0 00.3224.0738c.2993.0402.5902.1283.8615.2609.4209.1822.8345.384 1.2382.6006a1.55992 1.55992 0 01.0295-.7975.54158.54158 0 01.253-.2971.54137.54137 0 01.387-.0499c.2412.0935.3643.4135.6227.443.3422.0394.4775-.4677.3348-.7827-.1428-.3151-.4283-.576-.4505-.9231-.0172-.2314.0714-.5193-.1132-.6597a.4898.4898 0 00-.2191-.0787c-1.5458-.2831-3.0924-.567-4.6398-.8517-.2757-.0517-.672-.0123-.6843.2659-.0074.1575.1329.3126.0714.4553-.0665.1526-.2831.1403-.4406.1945a.5979.5979 0 00-.2782.2586.59787.59787 0 00-.0664.374c.0421.2559.1413.4991.2904.7113-.3027-.1255-.7581-.1476-1.0609-.2756a4.08354 4.08354 0 00-.2658-1.0216.36152.36152 0 00-.0554-.146.36117.36117 0 00-.1119-.1089.35982.35982 0 00-.1475-.0513.35875.35875 0 00-.1553.0158c-.3988.0615-.7976.1206-1.1963.1821a.4625.4625 0 00-.2732.1059c-.1551.1649-.0025.4283-.0074.6547a.61354.61354 0 01-.1531.3405.61416.61416 0 01-.322.1888c-.2505.0508-.509.0475-.7581-.0099-.5588-.0861-1.1151-.1723-1.6738-.2584a2.74272 2.74272 0 001.2652-.8468c.2215-.2609.3397-.7483.0197-.8713a.76345.76345 0 00-.2905-.0222c-.7581.0049-1.3563-.6277-2.0652-.896a2.03333 2.03333 0 00-.6966-.128l-.7926.9723zM145.33 86.4456c-.086.1166-.201.21-.332.2723a.8887.8887 0 01-.421.0847c-.77-.0665-1.095-1.1766-1.858-1.3022-.068-.0172-.139-.0103-.202.0197-.113.0616-.133.2142-.14.3422-.032.635-.059 1.2947.189 1.8805.362.8566 1.3 1.5754 1.103 2.4837-1.059-.4899-1.61-1.6788-1.859-2.8184-.251-1.1397-.29-2.3359-.738-3.4141-.342.4357-1.056.0763-1.366-.3815-.295-.4332-.478-.9354-.763-1.376-.286-.4381-.724-.8319-1.246-.8565-.549-.0247-1.026.3519-1.445.7088-.364.2689-.669.6089-.898.9994-.293.5908-.217 1.2849-.231 1.9421-.015.7089-.165 1.4597-.65 1.9815-.485.5193-1.379.7015-1.913.2314a2.16189 2.16189 0 01-.534-.9625 46.67425 46.67425 0 01-1.447-5.1641c-.089.3987-.441.9132-.776.6793-.074-.0636-.135-.1425-.177-.2313-.625-1.056-1.779-1.6911-2.949-2.0726-1.166-.3791-2.395-.5563-3.549-.9747a9.09702 9.09702 0 01-1.844-.9182c-.146.2162-.232.468-.248.7288-.015.2607.04.5209.16.753.129.2271.331.405.572.5061.241.101.509.1196.762.0527.256-.0837.472-.2609.726-.3495.253-.0862.596-.0443.706.2018.109.2338-.054.5169.027.7631.121.3716.685.4012.882.7409.058.1345.071.284.038.4266-.034.1426-.112.2709-.223.366-.227.1846-.476.3386-.743.4578-.827.4603-1.416 1.2455-2.139 1.8559-.724.6129-1.746 1.0585-2.607.6671.204-1.0412-1.034-1.8043-1.263-2.8405-.076-.3422-.037-.704-.143-1.0363-.155-.4825-.583-.8123-.932-1.1766a4.62578 4.62578 0 01-.974-1.5519 4.6445 4.6445 0 01-.294-1.808c.02-.4283.098-.864 0-1.2824-.096-.416-.443-.8197-.871-.8025-.978.0443-2.211.1182-2.723-.7162-.184-.2979-.263-.7336.003-.9625.104-.0658.219-.1104.341-.1311a.92908.92908 0 01.365.0105c.736.0714 1.47.1452 2.206.2166.514.0492 1.07.0911 1.513-.1772.443-.2683.635-.9846.224-1.3021-.297-.2314-.834-.2191-.923-.5859-.071-.3076.269-.6547.084-.9132-.13-.1821-.426-.1329-.606.005-.156.1628-.327.3118-.509.4455-.352.1821-.77.0074-1.15-.1108-.379-.1181-.886-.128-1.068.224-.207.3914.18.9083-.022 1.3021-.271.5194-1.182.224-1.561.672-.433.512.296 1.28.151 1.9347-.187.0928-.395.1354-.604.1237-.208-.0116-.41-.0771-.585-.1901-.173-.1172-.31-.2789-.397-.4679-.088-.189-.123-.3982-.101-.6053.035-.2954.19-.5982.087-.8763-.112-.2148-.296-.3831-.52-.4751-.714-.3963-1.427-.7909-2.141-1.184-.2.3693.051.8246.367 1.1028.312.2757.706.4849.913.8492.131.2525.16.5454.082.819-.077.2735-.257.5071-.501.6529a.25978.25978 0 01-.103.042.25975.25975 0 01-.111-.005c-.034-.0201-.064-.0467-.087-.0784-.024-.0317-.041-.0678-.051-.1063-.376-.9673-.945-1.9199-1.851-2.4245-.908-.5071-2.21-.4012-2.806.448-.14.2018-.236.4332-.359.6474-.652 1.1347-2.055 1.6713-3.365 1.6368a.64807.64807 0 01-.3667-.0861c-.2117-.1453-.2019-.4554-.1699-.7114.0468-.3618.0911-.7212.1379-1.083a.86755.86755 0 01.2387-.5933c.2437-.1919.5932-.0713.9034-.0763.2341-.0104.4596-.0928.6446-.236.186-.1432.322-.3401.392-.5639.062-.2259.062-.4645-.002-.6901-.063-.2255-.187-.4295-.358-.5899-.14-.1329-.33-.3003-.256-.48.03-.0495.071-.0918.119-.1241.048-.0323.102-.0538.159-.0629.554-.16 1.143-.2019 1.687-.3939.546-.1895 1.075-.5784 1.206-1.1421.039-.1723.056-.3815.211-.4677.079-.0314.162-.0481.246-.0492.296-.0424.566-.194.756-.4249.19-.2309.286-.5245.271-.8231.261-.1821.628-.0467.881.1477.251.1945.475.4505.783.5342.573.1575 1.127-.352 1.723-.3545.251 0 .509.0886.743.0025.239-.0862.382-.3225.564-.4972.185-.1773.505-.2831.674-.0936-.049-.3569-.096-.7113-.145-1.0658.29.073.592.0831.887.0297.294-.0535.573-.1694.819-.3398-.62-.2093-1.238-.4185-1.858-.6277-.066-.0161-.126-.0482-.175-.0935-.136-.1453 0-.3717.108-.5366.263-.3963.308-1.0486-.125-1.2455-.296-.1354-.633.027-.916.1846-.453.251-.906.5046-1.359.7556-.042.2585.273.4062.468.5785.118.1051.202.2436.24.3973.039.1537.03.3154-.026.4638a.77905.77905 0 01-.284.3675c-.13.0911-.284.1407-.442.1424.089.1165.151.2514.181.3949.031.1436.028.2921-.006.4346-.303.0222-.608.0443-.914.0665a.3882.3882 0 01-.153-.0001.39134.39134 0 01-.142-.059c-.098-.0861-.084-.2388-.108-.3667-.041-.153-.126-.2904-.246-.3944-.119-.1039-.267-.1698-.424-.189-.313-.0353-.631-.006-.933.0861-.131.0463-.275.0428-.403-.0098-.073-.0484-.129-.1192-.158-.2019-.053-.1687-.063-.3485-.026-.5218.036-.1734.116-.3345.233-.4677.236-.2625.497-.5023.778-.7162a4.5306 4.5306 0 001.351-2.0923c.502-.2117 1.022-.4972 1.526-.7089.406-.188.831-.3308 1.268-.4258.411-.0628.828-.0826 1.243-.0591.566.0098 1.135.0197 1.701.032.505-.0212 1.01.0514 1.489.2141.465.192.876.608.908 1.1102.01.0572.005.1159-.015.1707a.33347.33347 0 01-.096.1419.3967.3967 0 01-.214.0492c-.47.0148-.669.1329-1.139.1501.297.3176.632.6523 1.065.7089.763.0985 1.312-.6916 1.664-1.3784.013.1748.093.3378.224.4541.131.1164.303.1769.478.1687.188-.0324.369-.1028.529-.2068 1.514-.8274 3.21-1.2655 4.935-1.275-.017-.1306.016-.2629.091-.3711.075-.1083.187-.1848.315-.2148.352-.0689.668.2339.837.549.168.315.274.6793.544.9156.269.2363.788.224.894-.1157.103-.3273-.239-.608-.522-.8024-.285-.192-.583-.5489-.391-.8344 1.447-.3225 2.907-.6425 4.391-.7065.252.0077.503-.0359.738-.128.117-.0493.214-.1355.276-.2455.062-.1099.086-.2373.069-.3625-.324.0756-.663.0533-.974-.0642-.311-.1174-.581-.3247-.774-.5954 1.524-.1256 3.119-.2363 4.584.1058l1.282 1.088c-.244.2535-.569.4923-.391.7458.058.0582.129.1024.207.1293.078.0269.161.0357.243.0258.31.0049.62.0123.928.0123 6.367 6.09 10.286 14.2988 11.018 23.0787-.517-.0197-.992.635-.926 1.2061.079.6621.556 1.1938.899 1.7649.056.0928.107.189.152.288l-.047 1.6245z" fill="#E17000"/><path d="M0 134.788h187.911M77.5243 16.9342c1.7245 0 3.1225-1.3979 3.1225-3.1224s-1.398-3.1225-3.1225-3.1225c-1.7244 0-3.1224 1.398-3.1224 3.1225 0 1.7245 1.398 3.1224 3.1224 3.1224zM169.787 76.397c1.724 0 3.122-1.398 3.122-3.1224 0-1.7245-1.398-3.1225-3.122-3.1225-1.725 0-3.122 1.398-3.122 3.1225 0 1.7244 1.397 3.1224 3.122 3.1224zM148.471 45.2902c1.724 0 3.122-1.398 3.122-3.1225 0-1.7244-1.398-3.1224-3.122-3.1224-1.725 0-3.123 1.398-3.123 3.1224 0 1.7245 1.398 3.1225 3.123 3.1225z" stroke="#3F3D56" stroke-width="2" stroke-miterlimit="10"/><path d="M127.984 72.0497c1.936 0 3.504-1.5689 3.504-3.5041 0-1.9353-1.568-3.5041-3.504-3.5041-1.935 0-3.504 1.5688-3.504 3.5041 0 1.9352 1.569 3.5041 3.504 3.5041z" fill="#3F3D56"/><path d="M139.24 61.9016c2.551 0 4.619-2.068 4.619-4.619 0-2.551-2.068-4.619-4.619-4.619-2.551 0-4.619 2.068-4.619 4.619 0 2.551 2.068 4.619 4.619 4.619z" fill="#fff"/><path d="M143.911 52.4942c-1.239-1.2095-2.909-1.8768-4.641-1.8554-1.731.0215-3.384.73-4.593 1.9697-2.519 2.5817-6.114 15.6193-6.114 15.6193s12.944-3.9174 15.463-6.4991c1.209-1.2397 1.877-2.9091 1.855-4.6409-.021-1.7319-.73-3.3842-1.97-4.5936zm-6.784 6.9547c-.429-.418-.723-.9536-.847-1.5392-.124-.5855-.072-1.1947.15-1.7504.222-.5558.604-1.0332 1.098-1.3719.493-.3387 1.076-.5234 1.675-.5308.598-.0074 1.185.1628 1.687.4892.502.3263.896.7941 1.131 1.3442.236.5501.304 1.1578.194 1.7462-.109.5885-.391 1.1312-.809 1.5597-.56.5745-1.326.9028-2.128.9128-.803.0099-1.577-.2994-2.151-.8598z" fill="#57B894"/></g><defs><clipPath id="clip0"><path fill="#fff" d="M0 0h187.911v135H0z"/></clipPath></defs></svg>